<svg width="16" height="16" viewBox="0 0 16 16" fill="none" xmlns="http://www.w3.org/2000/svg">
<path d="M3.46821 1.94237C5.30257 3.31093 7.27564 6.08578 8.00005 7.57493C8.72451 6.08589 10.6975 3.3109 12.5319 1.94237C13.8555 0.954878 16 0.190812 16 2.62211C16 3.10768 15.7199 6.7011 15.5556 7.28448C14.9844 9.31271 12.9033 9.83001 11.0521 9.51691C14.288 10.0642 15.1111 11.8771 13.3334 13.6899C9.95717 17.1329 8.48076 12.8261 8.10228 11.7225C8.03293 11.5202 8.00048 11.4256 8 11.506C7.99952 11.4256 7.96707 11.5202 7.89772 11.7225C7.5194 12.8261 6.04303 17.133 2.66658 13.6899C0.888822 11.8771 1.71196 10.0641 4.94786 9.51691C3.09662 9.83001 1.01547 9.3127 0.444439 7.28448C0.280131 6.70105 0 3.10762 0 2.62211C0 0.190812 2.14459 0.954878 3.46812 1.94237H3.46821Z" fill="#776F61"/>
</svg>
