<svg width="20" height="20" viewBox="0 0 20 20" fill="none" xmlns="http://www.w3.org/2000/svg">
<g clip-path="url(#clip0_11378_48235)">
<path d="M10 14.9978C12.7614 14.9978 15 12.7592 15 9.9978C15 7.23638 12.7614 4.9978 10 4.9978C7.23858 4.9978 5 7.23638 5 9.9978C5 12.7592 7.23858 14.9978 10 14.9978Z" fill="white"/>
<path d="M10.0032 5.00002H18.662C17.7846 3.47976 16.5224 2.21731 15.0023 1.3396C13.4822 0.461898 11.7578 -0.000122446 10.0025 2.43416e-08C8.24726 0.000122495 6.52293 0.462383 5.00296 1.3403C3.483 2.21822 2.22096 3.48085 1.34375 5.00123L5.67317 12.5L5.67704 12.499C5.23663 11.7395 5.00421 10.8774 5.00322 9.99946C5.00224 9.12153 5.23271 8.25885 5.67142 7.49839C6.11013 6.73794 6.74156 6.10657 7.50207 5.66795C8.26258 5.22932 9.12528 4.99894 10.0032 5.00002Z" fill="url(#paint0_linear_11378_48235)"/>
<path d="M10.0052 13.9583C12.1913 13.9583 13.9635 12.1861 13.9635 9.99996C13.9635 7.81383 12.1913 6.04163 10.0052 6.04163C7.81908 6.04163 6.04688 7.81383 6.04688 9.99996C6.04688 12.1861 7.81908 13.9583 10.0052 13.9583Z" fill="#1A73E8"/>
<path d="M14.3312 12.5013L10.0018 20.0001C11.7571 20.0003 13.4815 19.5384 15.0016 18.6608C16.5218 17.7832 17.7841 16.5209 18.6616 15.0007C19.5392 13.4805 20.001 11.756 20.0007 10.0008C20.0004 8.24548 19.5379 6.52121 18.6598 5.00134H10.001L10 5.00522C10.8779 5.00352 11.7408 5.23331 12.5016 5.67142C13.2624 6.10952 13.8943 6.74046 14.3335 7.50063C14.7727 8.26079 15.0038 9.12332 15.0034 10.0013C15.003 10.8792 14.7711 11.7415 14.3312 12.5013Z" fill="url(#paint1_linear_11378_48235)"/>
<path d="M5.66955 12.5012L1.34013 5.00244C0.462268 6.52244 6.54213e-05 8.24678 6.94442e-09 10.0021C-6.54074e-05 11.7574 0.462009 13.4817 1.33976 15.0018C2.21751 16.5219 3.48 17.784 5.00028 18.6614C6.52057 19.5388 8.24505 20.0004 10.0003 19.9999L14.3298 12.5011L14.327 12.4983C13.8895 13.2595 13.259 13.8918 12.4992 14.3316C11.7394 14.7715 10.877 15.0032 9.9991 15.0035C9.12117 15.0038 8.25867 14.7726 7.49856 14.3333C6.73844 13.894 6.10758 13.2621 5.66955 12.5012Z" fill="url(#paint2_linear_11378_48235)"/>
</g>
<defs>
<linearGradient id="paint0_linear_11378_48235" x1="1.34375" y1="6.25002" x2="18.662" y2="6.25002" gradientUnits="userSpaceOnUse">
<stop stop-color="#D93025"/>
<stop offset="1" stop-color="#EA4335"/>
</linearGradient>
<linearGradient id="paint1_linear_11378_48235" x1="8.63562" y1="19.8663" x2="17.2948" y2="4.86826" gradientUnits="userSpaceOnUse">
<stop stop-color="#FCC934"/>
<stop offset="1" stop-color="#FBBC04"/>
</linearGradient>
<linearGradient id="paint2_linear_11378_48235" x1="11.0818" y1="19.3756" x2="2.42267" y2="4.37744" gradientUnits="userSpaceOnUse">
<stop stop-color="#1E8E3E"/>
<stop offset="1" stop-color="#34A853"/>
</linearGradient>
<clipPath id="clip0_11378_48235">
<rect width="20" height="20" fill="white"/>
</clipPath>
</defs>
</svg>
