<svg
  width="100%"
  height="100%"
  viewBox="0 0 310 140"
  fill="none"
  xmlns="http://www.w3.org/2000/svg"
>
  <!-- ───────────────────────────────────────────
             TOP: “CourtListener” LINK
       ─────────────────────────────────────────── -->
  <a xlink:href="/" target="_self">
    <rect
      x="0"
      y="0"
      width="310"
      height="124.526"
      fill="transparent"
      pointer-events="all"
    />
    <g clip-path="url(#clip0_9035_58523)">
      <path d="M73.0824 124.526H69.5117V137.34H73.0824V124.526Z" fill="#848582"/>
      <path d="M36.7855 124.526H33.2148V137.34H36.7855V124.526Z" fill="#848582"/>
      <path d="M45.8636 124.526H42.293V137.34H45.8636V124.526Z" fill="#848582"/>
      <path d="M54.934 124.526H51.3633V137.34H54.934V124.526Z" fill="#B5362D"/>
      <path d="M64.0043 124.526H60.4336V137.34H64.0043V124.526Z" fill="#848582"/>
      <path
        d="M30.4744 103.871C30.4744 102.368 30.748 100.883 31.2903 99.4131C31.8326 97.9431 32.6293 96.631 33.6708 95.4722C34.7122 94.3134 35.9888 93.3797 37.4958 92.6614C39.0028 91.9431 40.7209 91.584 42.6455 91.584C44.9155 91.584 46.8832 92.082 48.539 93.078C50.1947 94.074 51.433 95.3669 52.244 96.9662L48.5582 99.4993C48.2318 98.805 47.8383 98.2208 47.3776 97.7467C46.912 97.2727 46.4129 96.8944 45.8802 96.6167C45.3475 96.3389 44.7907 96.1378 44.21 96.0085C43.6293 95.8792 43.063 95.817 42.5063 95.817C41.3017 95.817 40.2506 96.0612 39.3579 96.5448C38.4653 97.0332 37.7214 97.6605 37.1311 98.4363C36.5407 99.212 36.0944 100.093 35.7921 101.075C35.4897 102.056 35.3409 103.038 35.3409 104.005C35.3409 105.092 35.5137 106.141 35.864 107.146C36.2096 108.152 36.7039 109.038 37.3422 109.799C37.9805 110.561 38.7436 111.178 39.6363 111.638C40.529 112.103 41.508 112.332 42.5735 112.332C43.1302 112.332 43.7109 112.261 44.3108 112.126C44.9155 111.988 45.4866 111.767 46.0338 111.466C46.5761 111.164 47.0848 110.776 47.5455 110.302C48.0111 109.828 48.3806 109.253 48.659 108.583L52.5896 110.838C52.196 111.763 51.6345 112.581 50.9002 113.285C50.1707 113.989 49.3453 114.588 48.4286 115.071C47.5119 115.555 46.5329 115.928 45.4914 116.182C44.45 116.436 43.4277 116.565 42.4295 116.565C40.6681 116.565 39.0556 116.197 37.5966 115.454C36.1376 114.712 34.8754 113.75 33.8243 112.557C32.7685 111.365 31.9478 110.015 31.3527 108.497C30.7624 106.984 30.4648 105.437 30.4648 103.862L30.4744 103.871Z"
        fill="#B5362D"
      />
      <path
        d="M66.3765 116.542C64.5671 116.542 62.9258 116.187 61.4524 115.484C59.979 114.78 58.7168 113.841 57.661 112.673C56.6051 111.504 55.7892 110.168 55.2085 108.665C54.6278 107.161 54.3398 105.624 54.3398 104.049C54.3398 102.473 54.647 100.831 55.2613 99.3273C55.8756 97.8237 56.7203 96.4926 57.8001 95.3385C58.88 94.1797 60.1614 93.2604 61.6444 92.5804C63.1274 91.9004 64.7399 91.5557 66.4773 91.5557C68.2146 91.5557 69.8896 91.9196 71.3629 92.6474C72.8363 93.3753 74.0937 94.333 75.1352 95.5109C76.1766 96.6889 76.9925 98.0344 77.5684 99.538C78.1491 101.042 78.4371 102.569 78.4371 104.121C78.4371 105.763 78.1347 107.329 77.5348 108.823C76.9301 110.317 76.095 111.634 75.0296 112.778C73.9642 113.923 72.6875 114.837 71.2046 115.522C69.7216 116.207 68.109 116.547 66.3717 116.547L66.3765 116.542ZM59.2111 104.049C59.2111 105.112 59.3743 106.141 59.6959 107.137C60.0222 108.133 60.4877 109.01 61.1069 109.776C61.7212 110.537 62.4746 111.155 63.3673 111.614C64.26 112.079 65.2726 112.309 66.4101 112.309C67.5475 112.309 68.5937 112.074 69.4864 111.595C70.3791 111.121 71.1326 110.489 71.7469 109.704C72.3612 108.919 72.8267 108.033 73.1387 107.051C73.4506 106.069 73.609 105.069 73.609 104.049C73.609 103.029 73.441 101.956 73.1051 100.96C72.7691 99.9642 72.294 99.0879 71.6797 98.3218C71.0654 97.5604 70.3119 96.9523 69.4192 96.5021C68.5266 96.052 67.5235 95.827 66.4101 95.827C65.2966 95.827 64.2168 96.0664 63.3145 96.5404C62.4123 97.0145 61.654 97.6418 61.0541 98.4127C60.4493 99.1885 59.9934 100.07 59.6815 101.051C59.3695 102.033 59.2111 103.034 59.2111 104.054V104.049Z"
        fill="#B5362D"
      />
      <path
        d="M92.5614 112.309C93.6988 112.309 94.6538 112.079 95.4313 111.614C96.2088 111.15 96.8327 110.551 97.3079 109.809C97.783 109.067 98.1189 108.219 98.3157 107.257C98.5125 106.299 98.6133 105.308 98.6133 104.288V91.7231H103.379V104.288C103.379 105.978 103.177 107.563 102.769 109.043C102.362 110.523 101.728 111.82 100.855 112.931C99.9811 114.042 98.8676 114.923 97.4998 115.57C96.132 116.216 94.4955 116.542 92.5949 116.542C90.6944 116.542 88.9475 116.202 87.5701 115.517C86.1879 114.837 85.0697 113.932 84.2154 112.811C83.3563 111.691 82.7372 110.389 82.3533 108.909C81.9693 107.429 81.7773 105.887 81.7773 104.293V91.7279H86.5766V104.293C86.5766 105.332 86.6774 106.333 86.8742 107.295C87.071 108.258 87.4069 109.105 87.882 109.847C88.3572 110.59 88.9763 111.183 89.7442 111.634C90.5121 112.084 91.4479 112.309 92.5614 112.309Z"
        fill="#B5362D"
      />
      <path
        d="M108.215 116.365V91.7231H119.138C120.275 91.7231 121.322 91.9626 122.286 92.4366C123.246 92.9107 124.077 93.538 124.772 94.3089C125.468 95.0846 126.011 95.9657 126.409 96.9473C126.803 97.929 126.999 98.9202 126.999 99.9162C126.999 101.511 126.601 102.966 125.799 104.274C124.998 105.581 123.913 106.524 122.546 107.104L128.18 116.369H122.79L117.746 108.109H113.014V116.369H108.215V116.365ZM113.014 103.91H119.032C119.474 103.91 119.887 103.804 120.266 103.599C120.65 103.393 120.981 103.105 121.259 102.746C121.538 102.387 121.758 101.966 121.922 101.477C122.085 100.994 122.166 100.472 122.166 99.9162C122.166 99.3607 122.075 98.8053 121.888 98.3216C121.701 97.838 121.451 97.4118 121.139 97.0527C120.827 96.6936 120.467 96.4158 120.059 96.2195C119.652 96.0232 119.244 95.9226 118.826 95.9226H113.019V103.905L113.014 103.91Z"
        fill="#B5362D"
      />
      <path
        d="M149.192 95.9275H141.297V116.369H136.532V95.9275H128.637V91.728H149.192V95.9275Z"
        fill="#B5362D"
      />
      <path
        d="M158.402 116.365V91.7241H160.836V114.211H175.099V116.361H158.402V116.365Z"
        fill="#B5362D"
      />
      <path
        d="M176.941 116.366V91.7243H179.375V116.366H176.941Z"
        fill="#B5362D"
      />
      <path
        d="M198.263 96.3448C197.567 95.5595 196.641 94.9226 195.479 94.4342C194.318 93.9506 192.998 93.7064 191.515 93.7064C189.336 93.7064 187.748 94.1182 186.75 94.937C185.751 95.7606 185.252 96.8763 185.252 98.2841C185.252 99.0263 185.387 99.6345 185.65 100.109C185.914 100.583 186.327 100.994 186.884 101.339C187.441 101.689 188.156 101.986 189.024 102.239C189.893 102.493 190.92 102.747 192.101 103.001C193.421 103.278 194.611 103.59 195.667 103.939C196.722 104.284 197.62 104.72 198.364 105.242C199.108 105.764 199.674 106.391 200.068 107.133C200.461 107.875 200.658 108.8 200.658 109.91C200.658 111.021 200.437 112.027 199.996 112.86C199.554 113.693 198.94 114.388 198.153 114.943C197.366 115.499 196.425 115.91 195.335 116.174C194.246 116.437 193.051 116.571 191.755 116.571C187.93 116.571 184.623 115.379 181.84 112.999L183.059 111.021C183.5 111.486 184.028 111.922 184.643 112.338C185.257 112.755 185.943 113.119 186.697 113.43C187.45 113.741 188.257 113.985 189.116 114.158C189.975 114.33 190.877 114.416 191.827 114.416C193.8 114.416 195.335 114.062 196.434 113.358C197.534 112.654 198.085 111.582 198.085 110.15C198.085 109.389 197.927 108.742 197.615 108.225C197.303 107.703 196.833 107.253 196.204 106.87C195.58 106.487 194.803 106.156 193.872 105.879C192.945 105.601 191.866 105.323 190.637 105.045C189.336 104.744 188.204 104.433 187.229 104.107C186.255 103.781 185.435 103.379 184.758 102.891C184.086 102.407 183.582 101.823 183.246 101.138C182.91 100.458 182.742 99.6153 182.742 98.6241C182.742 97.4893 182.958 96.4789 183.385 95.5882C183.812 94.6976 184.422 93.9554 185.214 93.3664C186.001 92.7774 186.932 92.3273 187.997 92.0113C189.063 91.7 190.248 91.542 191.544 91.542C193.19 91.542 194.659 91.791 195.945 92.289C197.231 92.787 198.397 93.4861 199.439 94.3863L198.258 96.3304L198.263 96.3448Z"
        fill="#B5362D"
      />
      <path d="M220.736 93.88H211.934V116.371H209.501V93.88H200.699V91.73H220.736V93.88Z" fill="#B5362D"/>
      <path
        d="M239.275 114.215V116.365H222.684V91.7241H238.963V93.8741H225.117V102.757H237.187V104.806H225.117V114.211H239.275V114.215Z"
        fill="#B5362D"
      />
      <path
        d="M244.554 96.2405V116.371H242.121V91.7298H243.998L260.344 112.239V91.7633H262.777V116.371H260.656L244.55 96.2405H244.554Z"
        fill="#B5362D"
      />
      <path
        d="M283.829 114.215V116.365H267.238V91.7241H283.517V93.8741H269.672V102.757H281.742V104.806H269.672V114.211H283.829V114.215Z"
        fill="#B5362D"
      />
      <path
        d="M286.681 116.365V91.7241H297.114C298.18 91.7241 299.159 91.9492 300.051 92.3993C300.944 92.8494 301.717 93.4384 302.365 94.171C303.013 94.8989 303.517 95.7273 303.876 96.6514C304.236 97.5756 304.414 98.5142 304.414 99.4623C304.414 100.41 304.28 101.224 304.016 102.048C303.747 102.872 303.377 103.609 302.902 104.27C302.427 104.931 301.851 105.486 301.179 105.936C300.507 106.386 299.754 106.693 298.919 106.856L304.971 116.365H302.221L296.414 107.272H289.109V116.365H286.676H286.681ZM289.114 105.122H297.181C297.901 105.122 298.554 104.964 299.149 104.653C299.739 104.342 300.243 103.92 300.661 103.384C301.078 102.852 301.405 102.249 301.635 101.579C301.866 100.908 301.986 100.204 301.986 99.4623C301.986 98.7201 301.851 98.0114 301.587 97.3266C301.318 96.6466 300.963 96.0481 300.507 95.5405C300.056 95.0329 299.523 94.6259 298.909 94.3242C298.295 94.0226 297.652 93.8741 296.98 93.8741H289.119V105.117L289.114 105.122Z"
        fill="#B5362D"
      />
      <path
        d="M92.8511 133.649C92.8511 134.132 92.7551 134.578 92.5583 134.985C92.3615 135.392 92.1024 135.741 91.776 136.038C91.4497 136.335 91.0657 136.565 90.629 136.728C90.1922 136.89 89.7219 136.972 89.2228 136.972H83.1133V124.048H89.3524C89.8035 124.048 90.2114 124.144 90.5762 124.34C90.9409 124.536 91.2529 124.785 91.5072 125.097C91.7616 125.408 91.9584 125.757 92.1024 126.15C92.2415 126.543 92.3135 126.94 92.3135 127.342C92.3135 127.998 92.1503 128.597 91.8192 129.133C91.4928 129.674 91.0369 130.077 90.4514 130.345C91.1953 130.565 91.7808 130.972 92.2127 131.566C92.6447 132.159 92.8606 132.854 92.8606 133.639L92.8511 133.649ZM84.3899 125.164V129.933H88.8388C89.1556 129.933 89.4483 129.866 89.7219 129.732C89.9955 129.598 90.2306 129.421 90.4226 129.205C90.6194 128.985 90.7682 128.736 90.8785 128.448C90.9889 128.161 91.0417 127.864 91.0417 127.548C91.0417 127.232 90.9889 126.911 90.8881 126.619C90.7825 126.327 90.6386 126.078 90.4514 125.863C90.2642 125.652 90.0387 125.48 89.7843 125.355C89.5299 125.226 89.2468 125.164 88.9444 125.164H84.3851H84.3899ZM91.5744 133.428C91.5744 133.112 91.5216 132.806 91.4113 132.509C91.3009 132.212 91.1473 131.954 90.9457 131.729C90.7442 131.503 90.509 131.322 90.2354 131.183C89.9619 131.044 89.6691 130.972 89.3524 130.972H84.3899V135.866H89.2228C89.5491 135.866 89.8563 135.799 90.1442 135.665C90.4274 135.531 90.677 135.353 90.8929 135.128C91.1041 134.903 91.2721 134.645 91.3969 134.348C91.5168 134.051 91.5792 133.744 91.5792 133.428H91.5744Z"
        fill="#968F7F"
      />
      <path
        d="M96.085 124.058L100.318 131.011L104.585 124.058H105.972L100.956 132.174V136.977H99.6797V132.136L94.6836 124.053H96.0898L96.085 124.058Z"
        fill="#968F7F"
      />
      <path
        d="M114.465 136.974V124.05H122.964V125.18H115.741V129.931H121.832V130.984H115.741V136.97H114.465V136.974Z"
        fill="#968F7F"
      />
      <path
        d="M126.485 136.974V124.05H131.956C132.518 124.05 133.032 124.17 133.497 124.405C133.963 124.639 134.371 124.951 134.711 125.334C135.052 125.717 135.316 126.148 135.503 126.636C135.69 127.12 135.786 127.613 135.786 128.111C135.786 128.609 135.714 129.035 135.575 129.466C135.436 129.897 135.239 130.285 134.99 130.63C134.74 130.974 134.438 131.266 134.087 131.501C133.732 131.736 133.339 131.899 132.902 131.985L136.074 136.97H134.634L131.587 132.2H127.757V136.97H126.48L126.485 136.974ZM127.762 131.08H131.995C132.374 131.08 132.715 130.998 133.027 130.836C133.339 130.673 133.603 130.452 133.819 130.17C134.039 129.892 134.207 129.576 134.327 129.222C134.447 128.872 134.51 128.499 134.51 128.111C134.51 127.723 134.438 127.35 134.299 126.99C134.159 126.631 133.972 126.32 133.732 126.052C133.497 125.784 133.214 125.573 132.892 125.415C132.571 125.257 132.235 125.18 131.88 125.18H127.757V131.075L127.762 131.08Z"
        fill="#968F7F"
      />
      <path
        d="M148.377 135.85V136.98H139.676V124.056H148.214V125.186H140.952V129.845H147.283V130.918H140.952V135.85H148.377Z"
        fill="#968F7F"
      />
      <path
        d="M160.76 135.85V136.98H152.059V124.056H160.597V125.186H153.335V129.845H159.665V130.918H153.335V135.85H160.76Z"
        fill="#968F7F"
      />
      <path
        d="M165.355 137.177C165.029 137.177 164.75 137.071 164.515 136.86C164.28 136.65 164.16 136.358 164.16 135.979C164.16 135.659 164.275 135.386 164.496 135.156C164.722 134.926 165.000 134.811 165.331 134.811C165.662 134.811 165.945 134.926 166.176 135.151C166.411 135.381 166.526 135.654 166.526 135.979C166.526 136.353 166.411 136.645 166.176 136.856C165.941 137.066 165.667 137.172 165.355 137.172V137.177Z"
        fill="#968F7F"
      />
      <path
        d="M169.496 136.974V124.05H170.773V135.844H178.25V136.974H169.496Z"
        fill="#968F7F"
      />
      <path
        d="M185.419 124.056H186.494L191.874 136.98H190.526L188.846 132.938H183.024L181.364 136.98H179.996L185.414 124.056H185.419ZM188.558 131.933L185.947 125.545L183.303 131.933H188.558Z"
        fill="#968F7F"
      />
      <path
        d="M196.397 124.147H197.601L199.425 128.734L201.268 124.147H202.492L200.231 129.663L202.713 135.505L207.402 124.056H208.789L203.298 136.98H202.166L199.449 130.592L196.714 136.98H195.6L190.129 124.056H191.497L196.205 135.505L198.667 129.663L196.406 124.147H196.397Z"
        fill="#968F7F"
      />
      <path
        d="M52.2167 0.121275C50.6041 0.494775 49.3035 1.79723 48.9388 3.40615C48.4445 5.59448 49.6011 7.59126 51.42 8.41966V83.7324H55.1155V8.42445C56.6513 7.73491 57.7215 6.20261 57.7215 4.41652C57.7215 1.644 55.1299 -0.54432 52.2167 0.121275Z"
        fill="#B5362D"
      />
      <path
        d="M100.265 66.4092H77.3008V68.3006C77.3104 70.5895 78.707 71.9925 80.9914 71.9925C85.9923 71.9829 90.9884 71.9686 95.9988 71.959C96.4548 71.9494 96.9299 71.9351 97.3714 71.8153C100.131 71.0875 100.64 68.8082 100.265 66.4092Z"
        fill="#848582"
      />
      <path
        d="M105.201 38.3077C104.371 37.4649 103.339 37.0483 102.11 37.0483C100.781 37.0483 99.6962 37.4554 98.8516 38.2885C98.4436 38.686 98.1317 39.1505 97.9301 39.6724H70.1758V84.1045H73.7801V43.2637H87.722C87.722 44.8679 87.722 46.472 87.698 48.0761C87.6884 48.3874 87.6404 48.7178 87.5444 49.0051C85.8935 53.6595 84.2281 58.3043 82.6012 62.9491C82.4572 63.3561 82.2796 63.4902 81.8717 63.4806C80.4319 63.4567 79.0017 63.4806 77.5715 63.4902C77.0964 63.4902 76.9044 63.6769 76.9044 64.0983C76.9044 64.5197 77.1156 64.716 77.6243 64.7064C78.9969 64.7064 80.3599 64.6729 81.7373 64.6633C87.9428 64.6394 94.1531 64.6059 100.368 64.5867C100.934 64.5867 101.198 64.376 101.189 63.969C101.179 63.562 100.944 63.3848 100.392 63.3848C99.2067 63.3848 98.0309 63.3848 96.8551 63.4088C96.5095 63.4183 96.3559 63.3082 96.2216 62.9874C94.249 58.3426 92.2765 53.7074 90.304 49.0626C90.2368 48.9189 90.2032 48.7657 90.2032 48.6077V43.2685H97.9397C98.1269 43.7234 98.4052 44.1544 98.7604 44.5614C99.5475 45.4473 100.647 45.8974 102.062 45.8974C103.315 45.8974 104.366 45.476 105.201 44.6237C106.031 43.7809 106.454 42.7322 106.454 41.4489C106.454 40.1656 106.031 39.16 105.201 38.3077ZM94.0955 63.3753H84.6841C86.0902 59.4152 87.5012 55.4456 88.9074 51.4855H89.0274C90.712 55.4216 92.3869 59.3577 94.0907 63.3753H94.0955ZM103.373 42.9621C102.993 43.3835 102.552 43.5942 102.043 43.5942C101.534 43.5942 101.054 43.3835 100.68 42.9525C100.301 42.5215 100.114 41.9996 100.114 41.3915C100.114 40.8264 100.315 40.3524 100.69 39.9549C101.069 39.5479 101.52 39.3468 102.043 39.3468C102.566 39.3468 102.998 39.5671 103.373 39.9884C103.752 40.4194 103.939 40.9174 103.939 41.492C103.939 42.0666 103.752 42.5407 103.373 42.9621Z"
        fill="#848582"
      />
      <path
        d="M29.9806 76.2954H7.01598C7.01598 76.9802 7.00639 77.5787 7.01598 78.1773C7.01598 80.4661 8.42218 81.8692 10.697 81.8692C15.6979 81.8596 20.7036 81.8452 25.7044 81.8356C26.1604 81.8356 26.6355 81.8117 27.077 81.692C29.8366 80.9642 30.3453 78.6848 29.9806 76.2954Z"
        fill="#848582"
      />
      <path
        d="M8.67333 49.635C8.46216 49.0508 8.13101 48.5193 7.67508 48.0548C6.8304 47.212 5.80335 46.7954 4.56993 46.7954C3.25013 46.7954 2.16548 47.2024 1.32081 48.0356C0.476132 48.8688 0.0585938 49.9366 0.0585938 51.2439C0.0585938 52.3931 0.447337 53.4131 1.23442 54.3085C2.02151 55.1944 3.12054 55.6445 4.53634 55.6445C5.78895 55.6445 6.8304 55.2231 7.67508 54.3851C8.02062 54.0308 8.28458 53.6573 8.49575 53.2359H17.4272C17.4272 54.8065 17.4272 56.3867 17.4032 57.9573C17.4032 58.2685 17.3457 58.5989 17.2497 58.8863C15.6083 63.5406 13.9478 68.1759 12.3064 72.8302C12.1624 73.2372 11.9944 73.3617 11.5769 73.3617C10.1467 73.3378 8.70692 73.3618 7.27673 73.3713C6.8112 73.3713 6.60963 73.5581 6.60963 73.9795C6.61923 74.4008 6.8304 74.5876 7.33912 74.5876C8.70212 74.578 10.0747 74.5541 11.4377 74.5445C17.6432 74.511 23.8631 74.487 30.0686 74.4679C30.6445 74.4583 30.8989 74.2572 30.8893 73.8358C30.8893 73.4384 30.6541 73.2612 30.0926 73.2612C28.9168 73.2612 27.7313 73.2516 26.5555 73.2851C26.2243 73.2851 26.0564 73.1846 25.922 72.8638C23.9591 68.219 21.977 63.5837 20.0045 58.9389C19.9469 58.7953 19.9037 58.6277 19.9037 58.4744C19.9037 56.7362 19.9037 54.9789 19.9133 53.2311H33.836V84.107H37.4403V49.6398H8.67333V49.635ZM5.85134 52.7091C5.4626 53.1305 5.03066 53.3412 4.52194 53.3412C4.01321 53.3412 3.53328 53.1305 3.15894 52.6996C2.77979 52.2686 2.59262 51.7467 2.59262 51.1385C2.59262 50.5879 2.77979 50.0994 3.16854 49.702C3.54768 49.3046 3.99882 49.0939 4.52194 49.0939C5.04506 49.0939 5.4626 49.3141 5.85134 49.7355C6.23049 50.1665 6.41766 50.6645 6.41766 51.2391C6.41766 51.8137 6.23049 52.3021 5.85134 52.7091ZM23.8151 73.2564H14.4037C15.8099 69.2964 17.2209 65.3267 18.6271 61.3667C18.6607 61.3667 18.7039 61.3667 18.747 61.3571C20.422 65.2932 22.0922 69.2437 23.8103 73.2564H23.8151Z"
        fill="#848582"
      />
      <path
        d="M47.8938 12.7384C47.0635 11.8956 46.0317 11.479 44.8031 11.479C43.4833 11.479 42.3986 11.886 41.554 12.7192C40.6997 13.5476 40.2773 14.6202 40.2773 15.9275C40.2773 17.0767 40.6757 18.0966 41.4628 18.9921C41.8611 19.447 42.3506 19.787 42.917 19.9977V84.1055H46.5212V19.9929C47.0299 19.7822 47.4859 19.4709 47.8938 19.0543C48.7385 18.2116 49.1464 17.1629 49.1464 15.8796C49.1464 14.5963 48.7385 13.5907 47.8938 12.7384ZM46.0653 17.3975C45.6861 17.8189 45.2446 18.0296 44.7455 18.0296C44.2128 18.0296 43.7568 17.8189 43.3825 17.388C43.0033 16.957 42.8162 16.4351 42.8162 15.8269C42.8162 15.2619 43.0033 14.7878 43.3825 14.3904C43.7616 13.9834 44.2128 13.7823 44.7455 13.7823C45.2446 13.7823 45.6861 14.0025 46.0653 14.4239C46.454 14.8549 46.6412 15.3529 46.6412 15.9275C46.6412 16.5021 46.454 16.9761 46.0653 17.3975Z"
        fill="#848582"
      />
      <path
        d="M66.1438 23.0667C65.3135 22.2239 64.2721 21.793 63.0387 21.793C61.7189 21.793 60.6342 22.2144 59.7896 23.0428C58.9449 23.8712 58.5273 24.9342 58.5273 26.251C58.5273 27.4002 58.9161 28.4202 59.7032 29.3156C60.1015 29.7705 60.591 30.1009 61.1574 30.3212V84.1003H64.7616V30.3212C65.2704 30.1105 65.7359 29.7897 66.1486 29.3827C66.9789 28.5399 67.4012 27.4817 67.4012 26.2079C67.4012 24.9342 66.9789 23.9095 66.1486 23.0667H66.1438ZM64.3153 27.7259C63.9362 28.1472 63.4946 28.3579 62.9859 28.3579C62.4772 28.3579 61.9972 28.1377 61.6229 27.7163C61.2437 27.2853 61.0566 26.7634 61.0566 26.1553C61.0566 25.5902 61.2437 25.1162 61.6325 24.7187C62.0116 24.3117 62.4628 24.1106 62.9859 24.1106C63.509 24.1106 63.9409 24.3213 64.3153 24.7522C64.6944 25.1832 64.8816 25.6812 64.8816 26.2558C64.8816 26.8304 64.6944 27.3045 64.3153 27.7259Z"
        fill="#848582"
      />
    </g>
  </a>

  <!-- ───────────────────────────────────────────
               BOTTOM: “free.law” LINK
       ─────────────────────────────────────────── -->
  <a xlink:href="https://free.law/" class="group" target="_blank">
    <rect
      x="0"
      y="124.526"
      width="310"
      height="15.474"
      fill="transparent"
      pointer-events="all"
    />
    <g clip-path="url(#clip0_9035_58523)"
       class="group-hover:text-greyscale-900 text-[#968F7F]"
    >
      <path d="M73.0824 124.526H69.5117V137.34H73.0824V124.526Z" fill="#848582"/>
      <path d="M36.7855 124.526H33.2148V137.34H36.7855V124.526Z" fill="#848582"/>
      <path
        d="M45.8636 124.526H42.293V137.34H45.8636V124.526Z"
        fill="#848582"
      />
      <path d="M54.934 124.526H51.3633V137.34H54.934V124.526Z" fill="#B5362D"/>
      <path d="M64.0043 124.526H60.4336V137.34H64.0043V124.526Z" fill="#848582"/>

      <path
        d="M92.8511 133.649C92.8511 134.132 92.7551 134.578 92.5583 134.985C92.3615 135.392 92.1024 135.741 91.776 136.038C91.4497 136.335 91.0657 136.565 90.629 136.728C90.1922 136.89 89.7219 136.972 89.2228 136.972H83.1133V124.048H89.3524C89.8035 124.048 90.2114 124.144 90.5762 124.34C90.9409 124.536 91.2529 124.785 91.5072 125.097C91.7616 125.408 91.9584 125.757 92.1024 126.15C92.2415 126.543 92.3135 126.94 92.3135 127.342C92.3135 127.998 92.1503 128.597 91.8192 129.133C91.4928 129.674 91.0369 130.077 90.4514 130.345C91.1953 130.565 91.7808 130.972 92.2127 131.566C92.6447 132.159 92.8606 132.854 92.8606 133.639L92.8511 133.649ZM84.3899 125.164V129.933H88.8388C89.1556 129.933 89.4483 129.866 89.7219 129.732C89.9955 129.598 90.2306 129.421 90.4226 129.205C90.6194 128.985 90.7682 128.736 90.8785 128.448C90.9889 128.161 91.0417 127.864 91.0417 127.548C91.0417 127.232 90.9889 126.911 90.8881 126.619C90.7825 126.327 90.6386 126.078 90.4514 125.863C90.2642 125.652 90.0387 125.48 89.7843 125.355C89.5299 125.226 89.2468 125.164 88.9444 125.164H84.3851H84.3899ZM91.5744 133.428C91.5744 133.112 91.5216 132.806 91.4113 132.509C91.3009 132.212 91.1473 131.954 90.9457 131.729C90.7442 131.503 90.509 131.322 90.2354 131.183C89.9619 131.044 89.6691 130.972 89.3524 130.972H84.3899V135.866H89.2228C89.5491 135.866 89.8563 135.799 90.1442 135.665C90.4274 135.531 90.677 135.353 90.8929 135.128C91.1041 134.903 91.2721 134.645 91.3969 134.348C91.5168 134.051 91.5792 133.744 91.5792 133.428H91.5744Z"
        fill="currentColor"
      />
      <path
        d="M96.085 124.058L100.318 131.011L104.585 124.058H105.972L100.956 132.174V136.977H99.6797V132.136L94.6836 124.053H96.0898L96.085 124.058Z"
        fill="currentColor"
      />
      <path
        d="M114.465 136.974V124.05H122.964V125.18H115.741V129.931H121.832V130.984H115.741V136.97H114.465V136.974Z"
        fill="currentColor"
      />
      <path
        d="M126.485 136.974V124.05H131.956C132.518 124.05 133.032 124.17 133.497 124.405C133.963 124.639 134.371 124.951 134.711 125.334C135.052 125.717 135.316 126.148 135.503 126.636C135.69 127.12 135.786 127.613 135.786 128.111C135.786 128.609 135.714 129.035 135.575 129.466C135.436 129.897 135.239 130.285 134.99 130.63C134.74 130.974 134.438 131.266 134.087 131.501C133.732 131.736 133.339 131.899 132.902 131.985L136.074 136.97H134.634L131.587 132.2H127.757V136.97H126.48L126.485 136.974ZM127.762 131.08H131.995C132.374 131.08 132.715 130.998 133.027 130.836C133.339 130.673 133.603 130.452 133.819 130.17C134.039 129.892 134.207 129.576 134.327 129.222C134.447 128.872 134.51 128.499 134.51 128.111C134.51 127.723 134.438 127.35 134.299 126.99C134.159 126.631 133.972 126.32 133.732 126.052C133.497 125.784 133.214 125.573 132.892 125.415C132.571 125.257 132.235 125.18 131.88 125.18H127.757V131.075L127.762 131.08Z"
        fill="currentColor"
      />
      <path
        d="M148.377 135.85V136.98H139.676V124.056H148.214V125.186H140.952V129.845H147.283V130.918H140.952V135.85H148.377Z"
        fill="currentColor"
      />
      <path
        d="M160.76 135.85V136.98H152.059V124.056H160.597V125.186H153.335V129.845H159.665V130.918H153.335V135.85H160.76Z"
        fill="currentColor"
      />
      <path
        d="M165.355 137.177C165.029 137.177 164.75 137.071 164.515 136.86C164.28 136.65 164.16 136.358 164.16 135.979C164.16 135.659 164.275 135.386 164.496 135.156C164.722 134.926 165.000 134.811 165.331 134.811C165.662 134.811 165.945 134.926 166.176 135.151C166.411 135.381 166.526 135.654 166.526 135.979C166.526 136.353 166.411 136.645 166.176 136.856C165.941 137.066 165.667 137.172 165.355 137.172V137.177Z"
        fill="currentColor"
      />
      <path
        d="M169.496 136.974V124.05H170.773V135.844H178.25V136.974H169.496Z"
        fill="currentColor"
      />
      <path
        d="M185.419 124.056H186.494L191.874 136.98H190.526L188.846 132.938H183.024L181.364 136.98H179.996L185.414 124.056H185.419ZM188.558 131.933L185.947 125.545L183.303 131.933H188.558Z"
        fill="currentColor"
      />
      <path
        d="M196.397 124.147H197.601L199.425 128.734L201.268 124.147H202.492L200.231 129.663L202.713 135.505L207.402 124.056H208.789L203.298 136.98H202.166L199.449 130.592L196.714 136.98H195.6L190.129 124.056H191.497L196.205 135.505L198.667 129.663L196.406 124.147H196.397Z"
        fill="currentColor"
      />
    </g>
  </a>

  <defs>
    <clipPath id="clip0_9035_58523">
      <rect
        width="309.867"
        height="140"
        fill="white"
        transform="translate(0.0664062)"
      />
    </clipPath>
  </defs>
</svg>
