<svg width="19" height="20" viewBox="0 0 19 20" fill="none" xmlns="http://www.w3.org/2000/svg">
<g clip-path="url(#clip0_11378_48264)">
<path d="M18.1538 6.64259C17.748 5.66609 16.9248 4.61174 16.2801 4.27845C16.7398 5.16865 17.0589 6.12467 17.226 7.11253L17.2277 7.12819C16.1717 4.49655 14.3816 3.43376 12.9187 1.12264C12.8447 1.00576 12.7708 0.888635 12.6987 0.765005C12.6575 0.694394 12.6245 0.630772 12.5958 0.57221C12.5351 0.454739 12.4884 0.330592 12.4565 0.202286C12.4566 0.196365 12.4544 0.190636 12.4505 0.186191C12.4466 0.181746 12.4412 0.178897 12.4353 0.178186C12.4295 0.176607 12.4235 0.176607 12.4177 0.178186C12.4165 0.178186 12.4146 0.180355 12.4131 0.180837C12.4117 0.181319 12.4086 0.183488 12.4064 0.184452L12.41 0.178186C10.0639 1.55185 9.26744 4.09433 9.19515 5.36677C8.25791 5.43103 7.36181 5.77628 6.62375 6.3575C6.54677 6.2923 6.46633 6.23132 6.38275 6.17482C6.16996 5.42989 6.16088 4.64152 6.35649 3.89189C5.4949 4.30925 4.72934 4.90092 4.10826 5.62945H4.10392C3.73376 5.16024 3.75978 3.61306 3.78099 3.28989C3.67148 3.3339 3.56695 3.3894 3.46915 3.45545C3.14237 3.68867 2.83688 3.95037 2.55626 4.23748C2.23649 4.56169 1.94442 4.91211 1.68314 5.28508V5.28652V5.28483C1.08272 6.13593 0.656801 7.09752 0.429979 8.1141L0.417447 8.17579C0.399855 8.25797 0.336473 8.66959 0.325629 8.75899C0.325629 8.76598 0.324183 8.77249 0.32346 8.77948C0.241702 9.20443 0.19104 9.63478 0.171875 10.0671V10.1153C0.176003 12.4526 1.05622 14.7034 2.63877 16.4234C4.22132 18.1434 6.39119 19.2077 8.72005 19.406C11.0489 19.6044 13.3675 18.9224 15.2181 17.4948C17.0688 16.0672 18.317 13.9977 18.7163 11.6948C18.732 11.5743 18.7447 11.455 18.7587 11.3333C18.9511 9.74319 18.7428 8.13022 18.1529 6.64114L18.1538 6.64259ZM7.38866 13.9543C7.43228 13.9753 7.47325 13.9979 7.51807 14.0179L7.52458 14.022C7.47927 14.0004 7.43397 13.9778 7.38866 13.9543ZM17.2279 7.13084V7.12193L17.2296 7.13181L17.2279 7.13084Z" fill="url(#paint0_linear_11378_48264)"/>
<path d="M18.1519 6.64259C17.7461 5.66608 16.9228 4.61174 16.2782 4.27844C16.7379 5.16865 17.057 6.12467 17.2241 7.11252V7.12144L17.2258 7.13132C17.9458 9.19159 17.8417 11.4504 16.9351 13.4357C15.8646 15.7326 13.2744 18.0869 9.21852 17.9712C4.83726 17.8471 0.976552 14.5949 0.255982 10.3365C0.12464 9.66488 0.255982 9.32436 0.322014 8.77851C0.231943 9.20251 0.181678 9.63399 0.171875 10.0673V10.1155C0.176003 12.4528 1.05622 14.7036 2.63877 16.4237C4.22132 18.1437 6.39119 19.2079 8.72005 19.4062C11.0489 19.6046 13.3675 18.9227 15.2181 17.4951C17.0688 16.0675 18.317 13.9979 18.7163 11.695C18.732 11.5745 18.7447 11.4552 18.7587 11.3335C18.9511 9.74342 18.7428 8.13046 18.1529 6.64138L18.1519 6.64259Z" fill="url(#paint1_radial_11378_48264)"/>
<path d="M18.1519 6.64259C17.7461 5.66608 16.9228 4.61174 16.2782 4.27844C16.7379 5.16865 17.057 6.12467 17.2241 7.11252V7.12144L17.2258 7.13132C17.9458 9.19159 17.8417 11.4504 16.9351 13.4357C15.8646 15.7326 13.2744 18.0869 9.21852 17.9712C4.83726 17.8471 0.976552 14.5949 0.255982 10.3365C0.12464 9.66488 0.255982 9.32436 0.322014 8.77851C0.231943 9.20251 0.181678 9.63399 0.171875 10.0673V10.1155C0.176003 12.4528 1.05622 14.7036 2.63877 16.4237C4.22132 18.1437 6.39119 19.2079 8.72005 19.4062C11.0489 19.6046 13.3675 18.9227 15.2181 17.4951C17.0688 16.0675 18.317 13.9979 18.7163 11.695C18.732 11.5745 18.7447 11.4552 18.7587 11.3335C18.9511 9.74342 18.7428 8.13046 18.1529 6.64138L18.1519 6.64259Z" fill="url(#paint2_radial_11378_48264)"/>
<path d="M13.6078 7.73913C13.628 7.75335 13.6468 7.76757 13.6659 7.78178C13.4313 7.36576 13.1392 6.98486 12.7983 6.65032C9.89433 3.74635 12.0375 0.355575 12.3987 0.18206L12.4024 0.176758C10.0563 1.55042 9.2598 4.0929 9.1875 5.36534C9.29643 5.35787 9.40439 5.34872 9.51573 5.34872C10.3481 5.35033 11.1652 5.5723 11.8839 5.99208C12.6027 6.41186 13.1975 7.01447 13.6078 7.73865V7.73913Z" fill="url(#paint3_radial_11378_48264)"/>
<path d="M9.52289 8.31983C9.50747 8.55215 8.68665 9.35345 8.39962 9.35345C5.74388 9.35345 5.3125 10.9602 5.3125 10.9602C5.4301 12.3131 6.37287 13.4279 7.51253 14.016C7.56458 14.0429 7.61736 14.0673 7.67014 14.0911C7.76155 14.1316 7.85297 14.1691 7.94439 14.2034C8.33552 14.3419 8.74517 14.4209 9.15972 14.4379C13.8157 14.6563 14.717 8.87099 11.3573 7.19126C12.1499 7.08814 12.9524 7.28301 13.6094 7.73808C13.1991 7.0139 12.6043 6.41129 11.8855 5.99151C11.1668 5.57173 10.3497 5.34975 9.51735 5.34814C9.40649 5.34814 9.29805 5.3573 9.18912 5.36477C8.25188 5.42903 7.35578 5.77429 6.61772 6.3555C6.76015 6.47599 6.92089 6.63698 7.25948 6.97075C7.8933 7.59517 9.5188 8.24199 9.52241 8.31791L9.52289 8.31983Z" fill="url(#paint4_radial_11378_48264)"/>
<path d="M9.52289 8.31983C9.50747 8.55215 8.68665 9.35345 8.39962 9.35345C5.74388 9.35345 5.3125 10.9602 5.3125 10.9602C5.4301 12.3131 6.37287 13.4279 7.51253 14.016C7.56458 14.0429 7.61736 14.0673 7.67014 14.0911C7.76155 14.1316 7.85297 14.1691 7.94439 14.2034C8.33552 14.3419 8.74517 14.4209 9.15972 14.4379C13.8157 14.6563 14.717 8.87099 11.3573 7.19126C12.1499 7.08814 12.9524 7.28301 13.6094 7.73808C13.1991 7.0139 12.6043 6.41129 11.8855 5.99151C11.1668 5.57173 10.3497 5.34975 9.51735 5.34814C9.40649 5.34814 9.29805 5.3573 9.18912 5.36477C8.25188 5.42903 7.35578 5.77429 6.61772 6.3555C6.76015 6.47599 6.92089 6.63698 7.25948 6.97075C7.8933 7.59517 9.5188 8.24199 9.52241 8.31791L9.52289 8.31983Z" fill="url(#paint5_radial_11378_48264)"/>
<path d="M6.19107 6.0473C6.26675 6.09549 6.32916 6.13743 6.38387 6.17526C6.17107 5.43034 6.162 4.64196 6.3576 3.89233C5.49602 4.30969 4.73046 4.90136 4.10938 5.6299C4.15492 5.62869 5.50979 5.60435 6.19107 6.0473Z" fill="url(#paint6_radial_11378_48264)"/>
<path d="M0.257935 10.337C0.978746 14.5953 4.83922 17.8487 9.22048 17.9716C13.2764 18.0863 15.8671 15.7318 16.9371 13.4361C17.8436 11.4509 17.9478 9.19202 17.2277 7.13176V7.12284C17.2277 7.11585 17.2263 7.11176 17.2277 7.11392L17.2294 7.12959C17.5608 9.29299 16.4604 11.3879 14.7399 12.8074L14.7346 12.8194C11.3824 15.5499 8.17481 14.4664 7.52653 14.0244C7.48123 14.0027 7.43592 13.9801 7.39061 13.9567C5.4364 13.0226 4.62883 11.2431 4.80235 9.71521C4.33846 9.72205 3.88254 9.59422 3.48984 9.3472C3.09713 9.10018 2.78448 8.74458 2.58979 8.32347C3.10281 8.0092 3.68777 7.83154 4.28892 7.80741C4.89006 7.78328 5.48738 7.91348 6.02394 8.18562C7.12993 8.68764 8.38841 8.73711 9.5304 8.32347C9.52678 8.24756 7.90128 7.60049 7.26747 6.97632C6.92887 6.64254 6.76813 6.4818 6.6257 6.36106C6.54873 6.29586 6.46828 6.23488 6.38471 6.17839C6.32928 6.14055 6.26686 6.09958 6.19191 6.05042C5.51063 5.60747 4.15576 5.63182 4.11094 5.63302H4.1066C3.73643 5.16381 3.76246 3.61663 3.78367 3.29346C3.67416 3.33747 3.56963 3.39297 3.47182 3.45902C3.14504 3.69224 2.83956 3.95393 2.55894 4.24104C2.23802 4.56434 1.94475 4.91396 1.68221 5.28623C1.08178 6.13733 0.655863 7.09867 0.429041 8.11525C0.424462 8.13429 0.092614 9.58507 0.256248 10.3375L0.257935 10.337Z" fill="url(#paint7_radial_11378_48264)"/>
<path d="M12.8034 6.64976C13.1444 6.98467 13.4364 7.36598 13.671 7.78243C13.7223 7.82123 13.7703 7.85979 13.811 7.89714C15.9286 9.84919 14.8191 12.6086 14.7364 12.8038C16.4566 11.3865 17.556 9.29008 17.2259 7.12596C16.1693 4.49191 14.3773 3.42913 12.9169 1.118C12.8429 1.00112 12.7689 0.883996 12.6969 0.760366C12.6557 0.689755 12.6226 0.626133 12.594 0.567572C12.5333 0.4501 12.4866 0.325953 12.4547 0.197647C12.4547 0.191726 12.4526 0.185997 12.4487 0.181552C12.4448 0.177107 12.4393 0.174258 12.4335 0.173548C12.4277 0.171968 12.4216 0.171968 12.4159 0.173548C12.4147 0.173548 12.4127 0.175717 12.4113 0.176199C12.4098 0.176681 12.4067 0.178849 12.4045 0.179813C12.0433 0.35116 9.90063 3.7441 12.8046 6.64566L12.8034 6.64976Z" fill="url(#paint8_radial_11378_48264)"/>
<path d="M13.8106 7.89814C13.7699 7.86078 13.7219 7.82222 13.6706 7.78342C13.6516 7.76921 13.6328 7.75499 13.6125 7.74077C12.9555 7.2857 12.153 7.09084 11.3604 7.19395C14.7199 8.87368 13.8186 14.6575 9.16281 14.4406C8.74827 14.4236 8.33861 14.3445 7.94748 14.2061C7.85607 14.1719 7.76465 14.1345 7.67323 14.0938C7.62046 14.0697 7.56768 14.0456 7.51562 14.0186L7.52213 14.0227C8.17137 14.4659 11.378 15.5487 14.7302 12.8178L14.7355 12.8057C14.8192 12.6105 15.9287 9.85115 13.8101 7.8991L13.8106 7.89814Z" fill="url(#paint9_radial_11378_48264)"/>
<path d="M5.31615 10.9588C5.31615 10.9588 5.74729 9.35208 8.40328 9.35208C8.6903 9.35208 9.51184 8.55078 9.52654 8.31846C8.38456 8.7321 7.12608 8.68263 6.02009 8.18061C5.48353 7.90847 4.88621 7.77827 4.28507 7.8024C3.68392 7.82653 3.09896 8.00419 2.58594 8.31846C2.78064 8.73956 3.09328 9.09517 3.48599 9.34219C3.87869 9.58921 4.33461 9.71704 4.7985 9.71019C4.62546 11.2374 5.43279 13.0166 7.38677 13.9517C7.43038 13.9726 7.47135 13.9953 7.51618 14.0153C6.37556 13.4261 5.43376 12.3117 5.31615 10.9595V10.9588Z" fill="url(#paint10_radial_11378_48264)"/>
<path d="M18.1534 6.64259C17.7475 5.66609 16.9243 4.61174 16.2796 4.27845C16.7393 5.16865 17.0584 6.12467 17.2255 7.11253L17.2272 7.12819C16.1712 4.49655 14.3811 3.43377 12.9183 1.12264C12.8443 1.00576 12.7703 0.888635 12.6982 0.765005C12.657 0.694394 12.624 0.630772 12.5953 0.57221C12.5347 0.454739 12.4879 0.330592 12.456 0.202286C12.4561 0.196365 12.4539 0.190636 12.45 0.186191C12.4461 0.181746 12.4407 0.178897 12.4348 0.178186C12.4291 0.176607 12.423 0.176607 12.4172 0.178186C12.416 0.178186 12.4141 0.180355 12.4126 0.180837C12.4112 0.181319 12.4081 0.183488 12.4059 0.184452L12.4095 0.178186C10.0634 1.55185 9.26696 4.09433 9.19466 5.36677C9.30359 5.3593 9.41156 5.35014 9.5229 5.35014C10.3553 5.35175 11.1723 5.57373 11.8911 5.99351C12.6098 6.41329 13.2046 7.0159 13.615 7.74008C12.958 7.28501 12.1554 7.09014 11.3629 7.19326C14.7223 8.87298 13.821 14.6568 9.16526 14.4399C8.75072 14.4229 8.34106 14.3438 7.94993 14.2054C7.85852 14.1712 7.7671 14.1338 7.67568 14.0931C7.62291 14.069 7.57013 14.0449 7.51807 14.018L7.52458 14.022C7.47927 14.0004 7.43397 13.9778 7.38866 13.9543C7.43228 13.9753 7.47325 13.9979 7.51807 14.018C6.37745 13.4285 5.43565 12.3141 5.31805 10.9622C5.31805 10.9622 5.74918 9.35545 8.40517 9.35545C8.69219 9.35545 9.51374 8.55415 9.52844 8.32183C9.52483 8.24592 7.89933 7.59885 7.26551 6.97468C6.92692 6.6409 6.76618 6.48016 6.62375 6.35942C6.54677 6.29423 6.46633 6.23325 6.38275 6.17675C6.16996 5.43182 6.16088 4.64345 6.35649 3.89382C5.4949 4.31117 4.72934 4.90284 4.10826 5.63138H4.10392C3.73376 5.16217 3.75978 3.61499 3.78099 3.29182C3.67148 3.33583 3.56695 3.39133 3.46915 3.45738C3.14237 3.6906 2.83688 3.9523 2.55626 4.23941C2.23649 4.56362 1.94442 4.91404 1.68314 5.287C1.08272 6.1381 0.656801 7.09945 0.429979 8.11602L0.417447 8.17772C0.399855 8.2599 0.32105 8.6773 0.309723 8.76695C0.237642 9.19781 0.191609 9.63263 0.171875 10.069V10.1172C0.176003 12.4545 1.05622 14.7053 2.63877 16.4253C4.22132 18.1454 6.39119 19.2096 8.72005 19.4079C11.0489 19.6063 13.3675 18.9244 15.2181 17.4968C17.0688 16.0692 18.317 13.9996 18.7163 11.6967C18.732 11.5762 18.7447 11.4569 18.7587 11.3352C18.9511 9.74512 18.7428 8.13215 18.1529 6.64307L18.1534 6.64259Z" fill="url(#paint11_linear_11378_48264)"/>
</g>
<defs>
<linearGradient id="paint0_linear_11378_48264" x1="16.9175" y1="3.16166" x2="1.41131" y2="18.1225" gradientUnits="userSpaceOnUse">
<stop offset="0.048" stop-color="#FFF44F"/>
<stop offset="0.111" stop-color="#FFE847"/>
<stop offset="0.225" stop-color="#FFC830"/>
<stop offset="0.368" stop-color="#FF980E"/>
<stop offset="0.401" stop-color="#FF8B16"/>
<stop offset="0.462" stop-color="#FF672A"/>
<stop offset="0.534" stop-color="#FF3647"/>
<stop offset="0.705" stop-color="#E31587"/>
</linearGradient>
<radialGradient id="paint1_radial_11378_48264" cx="0" cy="0" r="1" gradientUnits="userSpaceOnUse" gradientTransform="translate(16.3155 2.34568) scale(19.4723)">
<stop offset="0.129" stop-color="#FFBD4F"/>
<stop offset="0.186" stop-color="#FFAC31"/>
<stop offset="0.247" stop-color="#FF9D17"/>
<stop offset="0.283" stop-color="#FF980E"/>
<stop offset="0.403" stop-color="#FF563B"/>
<stop offset="0.467" stop-color="#FF3750"/>
<stop offset="0.71" stop-color="#F5156C"/>
<stop offset="0.782" stop-color="#EB0878"/>
<stop offset="0.86" stop-color="#E50080"/>
</radialGradient>
<radialGradient id="paint2_radial_11378_48264" cx="0" cy="0" r="1" gradientUnits="userSpaceOnUse" gradientTransform="translate(9.08574 10.2985) scale(19.4723)">
<stop offset="0.3" stop-color="#960E18"/>
<stop offset="0.351" stop-color="#B11927" stop-opacity="0.74"/>
<stop offset="0.435" stop-color="#DB293D" stop-opacity="0.343"/>
<stop offset="0.497" stop-color="#F5334B" stop-opacity="0.094"/>
<stop offset="0.53" stop-color="#FF3750" stop-opacity="0"/>
</radialGradient>
<radialGradient id="paint3_radial_11378_48264" cx="0" cy="0" r="1" gradientUnits="userSpaceOnUse" gradientTransform="translate(11.4919 -1.99218) scale(14.1053)">
<stop offset="0.132" stop-color="#FFF44F"/>
<stop offset="0.252" stop-color="#FFDC3E"/>
<stop offset="0.506" stop-color="#FF9D12"/>
<stop offset="0.526" stop-color="#FF980E"/>
</radialGradient>
<radialGradient id="paint4_radial_11378_48264" cx="0" cy="0" r="1" gradientUnits="userSpaceOnUse" gradientTransform="translate(6.91535 15.3592) scale(9.27101)">
<stop offset="0.353" stop-color="#3A8EE6"/>
<stop offset="0.472" stop-color="#5C79F0"/>
<stop offset="0.669" stop-color="#9059FF"/>
<stop offset="1" stop-color="#C139E6"/>
</radialGradient>
<radialGradient id="paint5_radial_11378_48264" cx="0" cy="0" r="1" gradientTransform="matrix(4.77861 -1.15532 1.35197 5.59471 10.0261 8.62686)" gradientUnits="userSpaceOnUse">
<stop offset="0.206" stop-color="#9059FF" stop-opacity="0"/>
<stop offset="0.278" stop-color="#8C4FF3" stop-opacity="0.064"/>
<stop offset="0.747" stop-color="#7716A8" stop-opacity="0.45"/>
<stop offset="0.975" stop-color="#6E008B" stop-opacity="0.6"/>
</radialGradient>
<radialGradient id="paint6_radial_11378_48264" cx="0" cy="0" r="1" gradientUnits="userSpaceOnUse" gradientTransform="translate(8.85164 1.62266) scale(6.67069 6.6707)">
<stop stop-color="#FFE226"/>
<stop offset="0.121" stop-color="#FFDB27"/>
<stop offset="0.295" stop-color="#FFC82A"/>
<stop offset="0.502" stop-color="#FFA930"/>
<stop offset="0.732" stop-color="#FF7E37"/>
<stop offset="0.792" stop-color="#FF7139"/>
</radialGradient>
<radialGradient id="paint7_radial_11378_48264" cx="0" cy="0" r="1" gradientUnits="userSpaceOnUse" gradientTransform="translate(14.1502 -2.71523) scale(28.4613)">
<stop offset="0.113" stop-color="#FFF44F"/>
<stop offset="0.456" stop-color="#FF980E"/>
<stop offset="0.622" stop-color="#FF5634"/>
<stop offset="0.716" stop-color="#FF3647"/>
<stop offset="0.904" stop-color="#E31587"/>
</radialGradient>
<radialGradient id="paint8_radial_11378_48264" cx="0" cy="0" r="1" gradientTransform="matrix(2.18882 20.7417 -13.6124 1.43837 11.7825 -1.13721)" gradientUnits="userSpaceOnUse">
<stop stop-color="#FFF44F"/>
<stop offset="0.06" stop-color="#FFE847"/>
<stop offset="0.168" stop-color="#FFC830"/>
<stop offset="0.304" stop-color="#FF980E"/>
<stop offset="0.356" stop-color="#FF8B16"/>
<stop offset="0.455" stop-color="#FF672A"/>
<stop offset="0.57" stop-color="#FF3647"/>
<stop offset="0.737" stop-color="#E31587"/>
</radialGradient>
<radialGradient id="paint9_radial_11378_48264" cx="0" cy="0" r="1" gradientUnits="userSpaceOnUse" gradientTransform="translate(8.84615 4.0326) scale(17.766)">
<stop offset="0.137" stop-color="#FFF44F"/>
<stop offset="0.48" stop-color="#FF980E"/>
<stop offset="0.592" stop-color="#FF5634"/>
<stop offset="0.655" stop-color="#FF3647"/>
<stop offset="0.904" stop-color="#E31587"/>
</radialGradient>
<radialGradient id="paint10_radial_11378_48264" cx="0" cy="0" r="1" gradientUnits="userSpaceOnUse" gradientTransform="translate(13.4256 4.99661) scale(19.4457)">
<stop offset="0.094" stop-color="#FFF44F"/>
<stop offset="0.231" stop-color="#FFE141"/>
<stop offset="0.509" stop-color="#FFAF1E"/>
<stop offset="0.626" stop-color="#FF980E"/>
</radialGradient>
<linearGradient id="paint11_linear_11378_48264" x1="16.7291" y1="3.08213" x2="3.5371" y2="16.2765" gradientUnits="userSpaceOnUse">
<stop offset="0.167" stop-color="#FFF44F" stop-opacity="0.8"/>
<stop offset="0.266" stop-color="#FFF44F" stop-opacity="0.634"/>
<stop offset="0.489" stop-color="#FFF44F" stop-opacity="0.217"/>
<stop offset="0.6" stop-color="#FFF44F" stop-opacity="0"/>
</linearGradient>
<clipPath id="clip0_11378_48264">
<rect width="19" height="19.6258" fill="white"/>
</clipPath>
</defs>
</svg>
