<svg width="32" height="32" viewBox="0 0 32 32" fill="none" xmlns="http://www.w3.org/2000/svg">
<path d="M12.9515 4.60059C12.2704 4.60059 11.7188 5.1522 11.7188 5.83335C11.7188 6.30116 11.9793 6.70801 12.3633 6.91678V18.8482H13.6921V6.82078C13.9923 6.59525 14.1858 6.23716 14.1858 5.83335C14.1858 5.1522 13.6342 4.60059 12.953 4.60059H12.9515ZM12.9515 5.33963C13.2243 5.33963 13.4452 5.56059 13.4452 5.83335C13.4452 6.10611 13.2243 6.32706 12.9515 6.32706C12.6787 6.32706 12.4578 6.10611 12.4578 5.83335C12.4578 5.56059 12.6787 5.33963 12.9515 5.33963Z" fill="#848582"/>
<path d="M15.9984 2.24756C15.3172 2.24756 14.7656 2.79918 14.7656 3.48032C14.7656 3.91765 14.9927 4.30013 15.3355 4.51956V18.8495H16.6643V4.51956C17.0071 4.30013 17.2342 3.91765 17.2342 3.48032C17.2342 2.79918 16.6826 2.24756 16.0014 2.24756H15.9984ZM15.9984 2.98661C16.2711 2.98661 16.4921 3.20756 16.4921 3.48032C16.4921 3.75308 16.2711 3.97403 15.9984 3.97403C15.7256 3.97403 15.5047 3.75308 15.5047 3.48032C15.5047 3.20756 15.7256 2.98661 15.9984 2.98661Z" fill="#848582"/>
<path d="M19.014 5.97314C18.3329 5.97314 17.7812 6.52476 17.7812 7.20591C17.7812 7.64324 18.0083 8.02572 18.3512 8.24514V18.8478H19.6799V8.24667C20.0228 8.02724 20.2498 7.64476 20.2498 7.20743C20.2498 6.52629 19.6982 5.97467 19.0171 5.97467L19.014 5.97314ZM19.014 6.71372C19.2868 6.71372 19.5077 6.93467 19.5077 7.20743C19.5077 7.48019 19.2868 7.70114 19.014 7.70114C18.7413 7.70114 18.5203 7.48019 18.5203 7.20743C18.5203 6.93467 18.7413 6.71372 19.014 6.71372Z" fill="#848582"/>
<path d="M3.94388 9.5909C3.72445 9.24804 3.34197 9.021 2.90464 9.021C2.22349 9.021 1.67188 9.57262 1.67188 10.2538C1.67188 10.9349 2.22349 11.4865 2.90464 11.4865C3.34197 11.4865 3.72445 11.2595 3.94388 10.9166H5.52407L4.74997 15.2778L3.56749 15.2839C3.50654 15.2839 3.45778 15.3448 3.45778 15.4164V15.424C3.45778 15.4957 3.51111 15.5566 3.57207 15.5566H3.58273V15.8218C3.58578 16.349 4.01549 16.7711 4.53968 16.7711L7.72292 16.7559C8.31111 16.7528 8.78197 16.2743 8.78197 15.6861V15.5307H8.82007C8.88407 15.5307 8.93435 15.4698 8.93435 15.3981V15.3905C8.93435 15.3189 8.88102 15.2579 8.82007 15.2579L7.63911 15.264L6.86807 10.9181H9.33816V18.848H10.6669V9.58938H3.94388V9.5909ZM2.90464 10.7475C2.63188 10.7475 2.41092 10.5265 2.41092 10.2538C2.41092 9.981 2.63188 9.76004 2.90464 9.76004C3.1774 9.76004 3.39835 9.981 3.39835 10.2538C3.39835 10.5265 3.1774 10.7475 2.90464 10.7475ZM6.8894 15.2686L5.49968 15.2747L6.19454 11.3555L6.8894 15.2686Z" fill="#848582"/>
<path d="M29.0889 6.79639C28.6516 6.79639 28.2691 7.02343 28.0496 7.36629H21.3281V18.8497H22.6569V8.69353H25.127L24.3559 13.0394L23.175 13.0333C23.114 13.0333 23.0607 13.0943 23.0607 13.1659V13.1735C23.0607 13.2451 23.1095 13.3061 23.175 13.3061H23.2131V13.4615C23.2131 14.0497 23.6839 14.5282 24.2721 14.5312L27.4554 14.5465C27.9796 14.5465 28.4077 14.1259 28.4123 13.5971V13.332H28.423C28.4839 13.332 28.5373 13.2711 28.5373 13.1994V13.1918C28.5373 13.1202 28.4885 13.0592 28.4276 13.0592L27.2451 13.0531L26.471 8.69201H28.0512C28.2706 9.03486 28.6531 9.26191 29.0904 9.26191C29.7716 9.26191 30.3232 8.71029 30.3232 8.02915C30.3232 7.34801 29.7716 6.79639 29.0904 6.79639H29.0889ZM26.4938 13.0501L25.1041 13.044L25.799 9.13086L26.4938 13.0501ZM29.0889 8.52286C28.8161 8.52286 28.5952 8.30191 28.5952 8.02915C28.5952 7.75639 28.8161 7.53543 29.0889 7.53543C29.3616 7.53543 29.5826 7.75639 29.5826 8.02915C29.5826 8.30191 29.3616 8.52286 29.0889 8.52286Z" fill="#848582"/>
<path d="M6.70312 29.1309V20.1328H12.7511V21.6642H8.45703V23.982H12.0319V25.4021H8.45703V29.1279L6.70465 29.1309H6.70312Z" fill="#663367"/>
<path d="M13.9766 29.1309V20.1328H15.7259V27.5995H20.3141V29.1309H13.9766Z" fill="#663367"/>
<path d="M21.375 29.1309V20.1328H25.1876C25.6005 20.1328 25.9845 20.2197 26.335 20.3934C26.6855 20.5671 26.9872 20.7957 27.2401 21.0776C27.4931 21.3595 27.6927 21.6825 27.8375 22.0406C27.9822 22.3987 28.0554 22.7614 28.0554 23.1241C28.0554 23.4867 27.9868 23.8738 27.8527 24.2319C27.7186 24.59 27.5266 24.9084 27.2813 25.1873C27.036 25.4661 26.7419 25.6901 26.3944 25.8578C26.047 26.0254 25.666 26.1107 25.2531 26.1107H23.1243V29.1279L21.375 29.1309ZM23.1243 24.5823H25.1525C25.4756 24.5823 25.7422 24.4513 25.9571 24.1907C26.175 23.9301 26.2801 23.5751 26.2801 23.1256C26.2801 22.6761 26.2481 22.6913 26.178 22.51C26.1095 22.3286 26.0226 22.1732 25.9144 22.0467C25.8062 21.9202 25.6752 21.8258 25.5274 21.7602C25.3796 21.6947 25.2302 21.6658 25.0779 21.6658H23.1259V24.5808L23.1243 24.5823Z" fill="#663367"/>
</svg>
