<svg width="16" height="16" viewBox="0 0 16 16" fill="none" xmlns="http://www.w3.org/2000/svg">
<g clip-path="url(#clip0_8199_16842)">
<path fill-rule="evenodd" clip-rule="evenodd" d="M8 0C3.582 0 0 3.672 0 8.203C0 11.826 2.292 14.902 5.471 15.986C5.871 16.061 6.017 15.808 6.017 15.59C6.017 15.396 6.01 14.88 6.007 14.196C3.781 14.691 3.311 13.096 3.311 13.096C2.948 12.148 2.423 11.896 2.423 11.896C1.697 11.388 2.478 11.397 2.478 11.397C3.281 11.455 3.703 12.242 3.703 12.242C4.417 13.495 5.576 13.133 6.031 12.924C6.105 12.394 6.311 12.033 6.54 11.828C4.764 11.621 2.896 10.917 2.896 7.774C2.896 6.879 3.208 6.146 3.719 5.573C3.637 5.365 3.362 4.531 3.798 3.403C3.798 3.403 4.47 3.181 5.998 4.243C6.64979 4.06092 7.32326 3.96807 8 3.967C8.68 3.97 9.364 4.061 10.003 4.243C11.53 3.181 12.201 3.402 12.201 3.402C12.638 4.531 12.362 5.365 12.281 5.572C12.793 6.146 13.103 6.879 13.103 7.774C13.103 10.924 11.232 11.618 9.45 11.822C9.738 12.075 9.993 12.575 9.993 13.341C9.993 14.436 9.983 15.321 9.983 15.591C9.983 15.81 10.127 16.065 10.533 15.985C12.1354 15.4316 13.5216 14.3853 14.493 12.996C15.4763 11.5913 16.0025 9.91762 16 8.203C16 3.672 12.418 0 8 0Z" fill="currentColor"/>
</g>
<defs>
<clipPath id="clip0_8199_16842">
<rect width="16" height="16" fill="white"/>
</clipPath>
</defs>
</svg>
