<svg width="16" height="16" viewBox="0 0 16 16" fill="none" xmlns="http://www.w3.org/2000/svg">
<g clip-path="url(#clip0_8199_16840)">
<path d="M14.82 5.27285e-05H1.18C0.870643 -0.00288366 0.572737 0.116928 0.351555 0.333236C0.130374 0.549544 0.00395575 0.844707 0 1.15405L0 14.8481C0.00421777 15.1571 0.130784 15.4519 0.351966 15.6679C0.573148 15.8838 0.870907 16.0033 1.18 16.0001H14.82C15.1294 16.0027 15.4274 15.8827 15.6485 15.6662C15.8697 15.4498 15.996 15.1545 16 14.8451V1.15005C15.9945 0.841574 15.8674 0.547739 15.6465 0.332403C15.4255 0.117067 15.1285 -0.00236799 14.82 5.27285e-05ZM4.744 13.6401H2.369V5.99605H4.744V13.6381V13.6401ZM3.564 4.95605C3.22188 4.95851 2.8911 4.83352 2.6361 4.60543C2.3811 4.37734 2.22014 4.0625 2.18457 3.72222C2.14901 3.38195 2.24139 3.04062 2.44372 2.76474C2.64606 2.48886 2.94384 2.29817 3.27907 2.22984C3.61431 2.1615 3.96297 2.22041 4.25715 2.39508C4.55132 2.56975 4.76994 2.84768 4.87041 3.17473C4.97087 3.50177 4.94599 3.8545 4.80062 4.1642C4.65524 4.47391 4.39978 4.7184 4.084 4.85005C3.91679 4.91864 3.73772 4.95364 3.557 4.95305L3.564 4.95605ZM13.639 13.6391H11.264V9.92105C11.264 9.03605 11.249 7.89605 10.03 7.89605C8.812 7.89605 8.605 8.86205 8.605 9.86405V13.6391H6.233V5.99705H8.51V7.04705H8.542C8.859 6.44605 9.632 5.81205 10.788 5.81205C13.193 5.80705 13.639 7.39005 13.639 9.44205V13.6391Z" fill="#776F61"/>
</g>
<defs>
<clipPath id="clip0_8199_16840">
<rect width="16" height="16" fill="white"/>
</clipPath>
</defs>
</svg>
