<svg xmlns="http://www.w3.org/2000/svg" width="32" height="32" data-name="Layer 1" viewBox="0 0 32 32">
  <path d="M111.69 390.29v-96.67h42.75c4.45 0 8.55.93 12.32 2.79a31.77 31.77 0 0 1 9.73 7.35 34.87 34.87 0 0 1 6.4 10.35 32.18 32.18 0 0 1-2.39 28.73 26.98 26.98 0 0 1-12.73 11.1l22.06 36.35h-21.1l-19.74-32.4h-18.52v32.4h-18.79zm18.78-48.88h23.55c1.72 0 3.34-.41 4.83-1.22 1.5-.82 2.79-1.93 3.88-3.34a16.72 16.72 0 0 0 2.59-4.97 19.44 19.44 0 0 0-.14-12.39 16.33 16.33 0 0 0-2.93-4.97 13.21 13.21 0 0 0-4.22-3.27 10.99 10.99 0 0 0-4.83-1.16h-22.74v31.31zm138.88 32.41v16.47h-67.12v-96.67h65.9v16.47h-47.11v23.28h40.71v15.25h-40.71v25.19h48.33zm6.8-32.54c0-5.9 1.07-11.73 3.2-17.5a47.47 47.47 0 0 1 9.33-15.45 47.26 47.26 0 0 1 14.98-11.03c5.9-2.81 12.62-4.22 20.15-4.22 8.89 0 16.59 1.95 23.08 5.85 6.49 3.9 11.32 8.99 14.5 15.25l-14.43 9.94a24.77 24.77 0 0 0-4.63-6.88 23.13 23.13 0 0 0-5.85-4.42 26.33 26.33 0 0 0-6.54-2.38c-2.27-.5-4.49-.75-6.67-.75-4.72 0-8.83.95-12.32 2.86a27.04 27.04 0 0 0-8.71 7.42 32.8 32.8 0 0 0-5.24 10.35 39.16 39.16 0 0 0-1.77 11.5c0 4.27.68 8.37 2.04 12.32a32.75 32.75 0 0 0 5.79 10.42c2.5 3 5.49 5.4 8.99 7.22a24.5 24.5 0 0 0 11.5 2.72c2.18 0 4.45-.27 6.81-.82a25.69 25.69 0 0 0 12.66-7.15 21.18 21.18 0 0 0 4.36-6.74l15.38 8.85a29.02 29.02 0 0 1-6.6 9.6 42.19 42.19 0 0 1-9.67 7.01 49.4 49.4 0 0 1-11.5 4.36c-4.08 1-8.08 1.5-11.98 1.5-6.9 0-13.21-1.45-18.92-4.36a49.1 49.1 0 0 1-14.77-11.37 52.76 52.76 0 0 1-9.67-15.93 49.78 49.78 0 0 1-3.47-18.18zm125.39-47.65h16.61l36.76 96.67h-19.33l-8.99-24.1h-33.77l-8.85 24.1h-19.33zm21.65 59.36L409.85 315l-13.89 37.99zm42.35 37.3v-96.67h40.98c4.45 0 8.55.93 12.32 2.79a31.94 31.94 0 0 1 9.74 7.35 34.87 34.87 0 0 1 6.4 10.35 31.2 31.2 0 0 1 2.31 11.64c0 3.9-.73 8.06-2.18 11.91a33.11 33.11 0 0 1-6.13 10.28 30.1 30.1 0 0 1-9.53 7.22 27.5 27.5 0 0 1-12.25 2.72h-22.87v32.4h-18.79zm18.79-48.88h21.78c3.45 0 6.33-1.41 8.65-4.22 2.31-2.81 3.47-6.62 3.47-11.44 0-2.45-.36-4.65-1.09-6.6a16.12 16.12 0 0 0-2.86-4.97 11.44 11.44 0 0 0-4.15-3.06 12.18 12.18 0 0 0-4.83-1.02h-20.97z" class="cls-1" style="fill:#5064ad;stroke-width:0" transform="matrix(.0733 0 0 .0707 -7.8 .52)"/>
  <path d="M12.37 7.16h1.31v12.19h-1.31z" style="fill:#5064ad;fill-opacity:.9936;stroke:#000;stroke-width:0;stroke-dasharray:none;stroke-dashoffset:0" transform="translate(.36 1.28) scale(.9773)"/>
  <path d="M14.27 6.3a1.24 1.24 0 0 1-1.22 1.27 1.24 1.24 0 0 1-1.27-1.22A1.24 1.24 0 0 1 13 5.08a1.24 1.24 0 0 1 1.27 1.22" style="fill:#5064ad;fill-opacity:.9936;stroke:#000;stroke-width:0;stroke-dasharray:none;stroke-dashoffset:0" transform="translate(.36 1.28) scale(.9773)"/>
  <path fill="#848582" d="M16 3.96a1.2 1.2 0 0 0-.65 2.22v14h1.3v-14A1.2 1.2 0 0 0 16 3.96zm0 .72a.48.48 0 1 1 0 .97.48.48 0 0 1 0-.97zm2.95 2.92a1.2 1.2 0 0 0-.65 2.22v10.36h1.3V9.82a1.2 1.2 0 0 0-.65-2.22zm0 .73a.48.48 0 1 1 0 .96.48.48 0 0 1 0-.96zM4.22 11.14a1.2 1.2 0 1 0 0 1.3h1.54l-.75 4.25-1.16.01c-.06 0-.1.06-.1.13 0 .08.05.14.1.14h.02v.26c0 .51.42.92.93.92l3.11-.01c.58 0 1.04-.47 1.04-1.05v-.15h.04c.06 0 .1-.06.1-.13s-.04-.13-.1-.13H7.83l-.75-4.25h2.41v7.75h1.3v-9.04H4.22ZM3.2 12.27a.48.48 0 1 1 0-.97.48.48 0 0 1 0 .97zm3.9 4.42H5.74l.68-3.83zM28.8 8.4c-.43 0-.8.23-1.02.56H21.2V20.2h1.3v-9.93h2.41l-.75 4.25H23c-.06 0-.1.05-.1.12 0 .08.04.14.1.14h.04v.15c0 .57.46 1.04 1.04 1.05l3.1.01c.52 0 .94-.41.94-.93v-.26h.01c.06 0 .11-.06.11-.13s-.04-.13-.1-.13h-1.16l-.75-4.27h1.54A1.2 1.2 0 1 0 28.8 8.4zm-2.54 6.12H24.9l.68-3.83zm2.53-4.43a.48.48 0 1 1 0-.96.48.48 0 0 1 0 .96z" style="stroke-width:.977287"/>
</svg>
