<svg width="19" height="20" viewBox="0 0 19 20" fill="none" xmlns="http://www.w3.org/2000/svg">
<path d="M18.9374 9.52079C18.9374 10.7711 18.6925 12.0091 18.2166 13.1642C17.7408 14.3193 17.0433 15.3689 16.1641 16.253C15.2848 17.1371 14.241 17.8384 13.0922 18.3168C11.9434 18.7953 10.7121 19.0416 9.46868 19.0416C6.95743 19.0416 4.54904 18.0385 2.77331 16.253C0.997589 14.4675 -1.60334e-07 12.0459 0 9.52079C-1.60334e-07 6.99572 0.997589 4.57407 2.77331 2.78858C4.54904 1.00308 6.95743 6.44866e-07 9.46868 0C10.7121 -7.98263e-08 11.9434 0.246263 13.0922 0.724728C14.241 1.20319 15.2848 1.90449 16.1641 2.78858C17.0433 3.67266 17.7408 4.72222 18.2166 5.87734C18.6925 7.03245 18.9374 8.2705 18.9374 9.52079Z" fill="url(#paint0_linear_11378_48254)"/>
<path d="M18.1957 9.52072C18.1957 11.8479 17.2762 14.0798 15.6397 15.7254C14.0031 17.371 11.7834 18.2955 9.46892 18.2955C7.15445 18.2955 4.93477 17.371 3.29819 15.7254C1.66161 14.0798 0.742188 11.8479 0.742188 9.52072C0.742188 7.19351 1.66161 4.96162 3.29819 3.31603C4.93477 1.67045 7.15445 0.745972 9.46892 0.745972C11.7834 0.745972 14.0031 1.67045 15.6397 3.31603C17.2762 4.96162 18.1957 7.19351 18.1957 9.52072Z" fill="url(#paint1_radial_11378_48254)"/>
<path d="M9.46677 1.20361C9.39628 1.20361 9.33953 1.26067 9.33953 1.33155V2.8072C9.33953 2.87807 9.39628 2.93513 9.46677 2.93513C9.53726 2.93513 9.594 2.87807 9.594 2.8072V1.33155C9.594 1.26067 9.53726 1.20361 9.46677 1.20361ZM8.63441 1.25651C8.62598 1.2556 8.61731 1.2556 8.60854 1.25662C8.53843 1.26397 8.48788 1.32664 8.4952 1.39714L8.55934 2.01448C8.56665 2.08498 8.62898 2.13581 8.69909 2.12845C8.7692 2.12109 8.81975 2.05842 8.81243 1.98793L8.74834 1.37058C8.74194 1.3089 8.69341 1.26227 8.63441 1.25651ZM10.3049 1.25712C10.2459 1.26283 10.1974 1.30946 10.1909 1.37113L10.1264 1.98843C10.119 2.05892 10.1695 2.12165 10.2397 2.12906C10.3098 2.13647 10.3721 2.08569 10.3795 2.0152L10.444 1.39786C10.4514 1.32737 10.4009 1.26469 10.3308 1.25728C10.322 1.25637 10.3134 1.25636 10.3049 1.25712ZM7.77938 1.38118C7.77092 1.38125 7.7623 1.3821 7.75369 1.38392C7.68473 1.3986 7.64096 1.46625 7.65556 1.53559L7.9595 2.97922C7.9741 3.04856 8.04138 3.09257 8.11034 3.07789C8.1793 3.06321 8.22307 2.99561 8.20847 2.92627L7.90453 1.48259C7.89174 1.42191 7.83865 1.38072 7.77938 1.38118ZM11.1599 1.3824C11.1006 1.38179 11.0475 1.42311 11.0347 1.48377L10.7297 2.92723C10.7151 2.99656 10.7588 3.06423 10.8278 3.07896C10.8967 3.0937 10.964 3.04972 10.9787 2.9804L11.2836 1.53694C11.2983 1.46761 11.2546 1.39994 11.1856 1.38521C11.177 1.38339 11.1684 1.3824 11.1599 1.3824ZM6.96339 1.61253C6.94691 1.61101 6.9299 1.61283 6.91314 1.61843C6.8461 1.64034 6.80965 1.71219 6.83143 1.7796L7.0222 2.36994C7.04399 2.43735 7.1155 2.47401 7.18254 2.4521C7.24958 2.43019 7.28598 2.35829 7.26419 2.29088L7.07343 1.70053C7.05711 1.64997 7.0128 1.61675 6.96339 1.61253ZM11.9713 1.61283C11.9219 1.61706 11.8776 1.65029 11.8613 1.70084L11.6704 2.29114C11.6486 2.35854 11.685 2.43045 11.752 2.45236C11.8191 2.47428 11.8906 2.43765 11.9124 2.37026L12.1033 1.77991C12.125 1.7125 12.0886 1.6406 12.0216 1.61869C12.0049 1.61322 11.9878 1.61143 11.9713 1.61283ZM6.15645 1.90944C6.13992 1.90975 6.12319 1.91339 6.10709 1.9206C6.04271 1.94938 6.01388 2.02468 6.04251 2.08944L6.63858 3.43788C6.66721 3.50264 6.74209 3.5316 6.8065 3.50281C6.87088 3.47403 6.89977 3.39873 6.87113 3.33397L6.27501 1.98553C6.25355 1.93695 6.20604 1.90848 6.15645 1.90944ZM12.7873 1.91397C12.7378 1.91306 12.6902 1.94135 12.6687 1.98989L12.0708 3.3375C12.0421 3.40223 12.0708 3.47758 12.1352 3.50646C12.1995 3.53533 12.2745 3.50647 12.3032 3.44175L12.9011 2.09414C12.9298 2.02941 12.9011 1.95406 12.8367 1.92518C12.8206 1.91798 12.8039 1.91434 12.7873 1.91397ZM5.40745 2.30792C5.38303 2.3061 5.35786 2.31157 5.33497 2.32488C5.27393 2.36032 5.25316 2.43826 5.28841 2.49964L5.59707 3.0372C5.63231 3.09858 5.70982 3.11946 5.77086 3.08402C5.83191 3.04858 5.85267 2.97065 5.81743 2.90927L5.50877 2.37171C5.48673 2.33334 5.44817 2.31079 5.40745 2.30792ZM13.5261 2.30792C13.4854 2.31066 13.4468 2.33333 13.4248 2.3717L13.1161 2.90926C13.0809 2.97064 13.1017 3.04857 13.1627 3.08401C13.2238 3.11945 13.3013 3.09857 13.3365 3.03719L13.6452 2.49963C13.6804 2.43825 13.6597 2.36031 13.5986 2.32487C13.5757 2.31159 13.5505 2.30622 13.5261 2.30792ZM4.68015 2.76405C4.65567 2.76496 4.63115 2.77286 4.60975 2.78845C4.5527 2.83007 4.54008 2.90976 4.58149 2.96713L5.44322 4.16157C5.48461 4.21894 5.56391 4.23162 5.62097 4.19002C5.67803 4.1484 5.69064 4.06872 5.64923 4.01134L4.78745 2.8169C4.76157 2.78104 4.72093 2.76265 4.68015 2.76405ZM14.2625 2.77055C14.2217 2.76903 14.1811 2.78742 14.1551 2.82323L13.2918 4.01651C13.2503 4.07382 13.2628 4.15354 13.3198 4.19524C13.3768 4.23693 13.4561 4.22439 13.4976 4.1671L14.3609 2.97381C14.4024 2.91649 14.3898 2.83678 14.3328 2.79508C14.3115 2.77946 14.287 2.77143 14.2625 2.77055ZM4.03004 3.31225C3.99757 3.31043 3.96443 3.32134 3.93823 3.34505C3.88584 3.39247 3.88163 3.47304 3.9288 3.52571L4.34185 3.98708C4.389 4.03976 4.46913 4.044 4.52152 3.99656C4.57391 3.94915 4.57812 3.86853 4.53095 3.81585L4.11796 3.35453C4.09438 3.32818 4.06253 3.31397 4.03004 3.31225ZM14.9044 3.31317C14.8719 3.31499 14.8401 3.32912 14.8165 3.35546L14.4035 3.81672C14.3563 3.86939 14.3605 3.95001 14.4129 3.99743C14.4652 4.04486 14.5454 4.04061 14.5925 3.98795L15.0056 3.5267C15.0528 3.47402 15.0486 3.3934 14.9962 3.34598C14.97 3.32227 14.9369 3.31146 14.9044 3.31317ZM3.40696 3.91406C3.37448 3.91588 3.34268 3.93002 3.3191 3.95635C3.27194 4.00903 3.27616 4.0896 3.32853 4.13702L4.41925 5.1243C4.47164 5.17172 4.55176 5.16748 4.59892 5.11481C4.64608 5.06214 4.64192 4.98157 4.58952 4.93415L3.49875 3.94687C3.47254 3.92316 3.43944 3.91234 3.40696 3.91406ZM15.5305 3.91837C15.4981 3.91655 15.4649 3.92743 15.4387 3.95112L14.3473 4.93763C14.2949 4.98501 14.2906 5.06558 14.3377 5.11829C14.3848 5.171 14.465 5.17528 14.5174 5.12789L15.6088 4.14138C15.6613 4.094 15.6655 4.01343 15.6184 3.96072C15.5948 3.93437 15.563 3.92011 15.5305 3.91837ZM2.88881 4.58398C2.84802 4.58246 2.80735 4.60094 2.78146 4.63677C2.74003 4.69411 2.75259 4.77378 2.80963 4.81544L3.30905 5.1803C3.36608 5.22196 3.44532 5.20938 3.48675 5.15203C3.52818 5.09469 3.51564 5.01496 3.45864 4.9733L2.95921 4.60845C2.93784 4.59283 2.91328 4.58487 2.88881 4.58398ZM16.0482 4.58863C16.0237 4.58955 15.9992 4.59742 15.9778 4.61304L15.4781 4.97757C15.4211 5.01919 15.4085 5.09892 15.4499 5.15629C15.4912 5.21366 15.5705 5.22629 15.6275 5.18468L16.1272 4.82016C16.1843 4.77854 16.1969 4.69885 16.1555 4.64148C16.1296 4.60563 16.089 4.58723 16.0482 4.58863ZM2.4046 5.29858C2.36388 5.30131 2.32537 5.32399 2.30334 5.36235C2.26809 5.42373 2.28886 5.50166 2.3499 5.5371L3.62084 6.27493C3.68188 6.31036 3.75939 6.28948 3.79464 6.2281C3.82988 6.16673 3.80912 6.08879 3.74807 6.05335L2.47714 5.31552C2.45425 5.30224 2.42902 5.29688 2.4046 5.29858ZM16.5289 5.29858C16.5045 5.29675 16.4793 5.30222 16.4564 5.31554L15.1855 6.05336C15.1244 6.0888 15.1037 6.16674 15.1389 6.22812C15.1741 6.2895 15.2516 6.31038 15.3127 6.27494L16.5837 5.53711C16.6447 5.50168 16.6655 5.42374 16.6302 5.36236C16.6082 5.324 16.5697 5.30144 16.5289 5.29858ZM2.0385 6.06025C1.98892 6.05904 1.94137 6.08758 1.91983 6.13612C1.89112 6.20085 1.91982 6.2762 1.98419 6.30507L2.54802 6.55795C2.6124 6.58682 2.68734 6.55797 2.71606 6.49324C2.74477 6.42851 2.71602 6.35316 2.65165 6.32429L2.08787 6.07141C2.07178 6.06417 2.05502 6.06059 2.0385 6.06025ZM16.8975 6.06551C16.881 6.06582 16.8642 6.06946 16.8481 6.07667L16.2841 6.3291C16.2197 6.35795 16.191 6.43325 16.2196 6.498C16.2483 6.56275 16.3233 6.59171 16.3877 6.56288L16.9516 6.31039C17.016 6.28157 17.0447 6.20624 17.0161 6.14149C16.9946 6.09292 16.9471 6.06452 16.8975 6.06551ZM1.71221 6.85635C1.66279 6.86051 1.61849 6.8937 1.60211 6.94425C1.58029 7.01163 1.61662 7.08357 1.68366 7.10553L3.07903 7.5627C3.14604 7.58464 3.21758 7.54808 3.23942 7.4807C3.26125 7.41332 3.22491 7.34138 3.15788 7.31942L1.76251 6.86225C1.74577 6.85675 1.72868 6.85495 1.71221 6.85635ZM17.2232 6.86182C17.2067 6.8603 17.1897 6.86212 17.1729 6.86771L15.7773 7.32389C15.7102 7.34581 15.6738 7.41771 15.6956 7.48512C15.7174 7.55252 15.7889 7.58913 15.8559 7.56722L17.2516 7.11104C17.3186 7.08913 17.3551 7.01722 17.3333 6.94982C17.3169 6.89926 17.2726 6.86603 17.2232 6.86182ZM1.50893 7.69202C1.44965 7.69141 1.3965 7.73278 1.38367 7.79344C1.36901 7.86277 1.41275 7.93043 1.48169 7.94517L2.08556 8.07421C2.15451 8.08895 2.2218 8.04497 2.23646 7.97565C2.25112 7.90632 2.20738 7.83866 2.13844 7.82392L1.53463 7.69489C1.52601 7.69306 1.51739 7.69202 1.50893 7.69202ZM17.4249 7.69323C17.4164 7.6933 17.4079 7.69445 17.3993 7.69597L16.7954 7.82495C16.7264 7.83969 16.6827 7.90729 16.6974 7.97662C16.712 8.04595 16.7793 8.08996 16.8483 8.07523L17.4521 7.94625C17.521 7.93151 17.5648 7.86386 17.5501 7.79452C17.5373 7.73386 17.4842 7.69273 17.4249 7.69323ZM1.35506 8.5326C1.29606 8.53828 1.2475 8.58483 1.24101 8.6465C1.23361 8.71699 1.28403 8.77974 1.35413 8.78719L2.81358 8.94234C2.88368 8.94979 2.94609 8.89903 2.9535 8.82854C2.9609 8.75806 2.91042 8.69531 2.84032 8.68786L1.38088 8.53271C1.37211 8.5318 1.3635 8.53179 1.35506 8.5326ZM17.5798 8.54363C17.5714 8.54272 17.5627 8.54272 17.554 8.54374L16.0944 8.6969C16.0242 8.70426 15.9737 8.76693 15.981 8.83742C15.9883 8.90791 16.0507 8.95874 16.1208 8.95138L17.5804 8.79822C17.6505 8.79086 17.701 8.72819 17.6937 8.6577C17.6873 8.59602 17.6388 8.5494 17.5798 8.54363ZM1.33035 9.39304C1.25986 9.39304 1.20312 9.4501 1.20312 9.52098C1.20312 9.59185 1.25986 9.6489 1.33035 9.6489H1.94768C2.01816 9.6489 2.07496 9.59185 2.07496 9.52098C2.07496 9.4501 2.01816 9.39304 1.94768 9.39304H1.33035ZM16.9859 9.39304C16.9154 9.39304 16.8586 9.4501 16.8586 9.52098C16.8586 9.59185 16.9154 9.6489 16.9859 9.6489H17.6032C17.6737 9.6489 17.7304 9.59185 17.7304 9.52098C17.7304 9.4501 17.6737 9.39304 17.6032 9.39304H16.9859ZM2.83862 10.0905C2.83019 10.0895 2.82157 10.0895 2.81281 10.0906L1.35314 10.2437C1.28303 10.2511 1.23249 10.3138 1.2398 10.3842C1.24711 10.4547 1.30944 10.5056 1.37955 10.4982L2.83922 10.345C2.90933 10.3377 2.95987 10.275 2.95256 10.2045C2.94615 10.1428 2.89762 10.0962 2.83862 10.0905ZM16.0941 10.0995C16.0351 10.1052 15.9866 10.1517 15.9801 10.2134C15.9727 10.2839 16.0231 10.3467 16.0932 10.3541L17.5527 10.5093C17.6228 10.5167 17.6852 10.4659 17.6926 10.3955C17.7 10.325 17.6495 10.2622 17.5794 10.2548L16.12 10.0996C16.1112 10.0987 16.1026 10.0987 16.0941 10.0995ZM2.11104 10.9638C2.10257 10.9639 2.09396 10.9647 2.08534 10.9665L1.48148 11.0955C1.41253 11.1102 1.36882 11.1779 1.38346 11.2472C1.39812 11.3166 1.46541 11.3605 1.53436 11.3458L2.13823 11.2169C2.20717 11.2021 2.25089 11.1345 2.23624 11.0651C2.22342 11.0045 2.17031 10.9633 2.11104 10.9638ZM16.8223 10.965C16.7631 10.9644 16.71 11.0057 16.6971 11.0664C16.6825 11.1357 16.7262 11.2034 16.7951 11.2181L17.399 11.3471C17.4679 11.3619 17.5352 11.318 17.5499 11.2486C17.5645 11.1793 17.5208 11.1116 17.4518 11.0968L16.848 10.9678C16.8394 10.966 16.8308 10.965 16.8223 10.965ZM3.12789 11.4689C3.11142 11.4674 3.09441 11.4692 3.07765 11.4748L1.68196 11.9309C1.61492 11.9529 1.57851 12.0248 1.6003 12.0922C1.6221 12.1596 1.69361 12.1962 1.76065 12.1743L3.15629 11.7181C3.22332 11.6962 3.25979 11.6243 3.238 11.5569C3.22164 11.5063 3.17731 11.4731 3.12789 11.4689ZM15.8043 11.4734C15.7548 11.4776 15.7105 11.5108 15.6942 11.5613C15.6723 11.6287 15.7087 11.7006 15.7757 11.7226L17.1711 12.1798C17.2381 12.2017 17.3096 12.1651 17.3315 12.0978C17.3533 12.0304 17.317 11.9584 17.2499 11.9365L15.8546 11.4793C15.8378 11.4738 15.8207 11.472 15.8043 11.4734ZM2.59531 12.468C2.57877 12.4683 2.56204 12.4719 2.54594 12.4791L1.98194 12.7316C1.91754 12.7604 1.88881 12.8358 1.91747 12.9005C1.94616 12.9653 2.02105 12.9942 2.08545 12.9653L2.64945 12.7129C2.71384 12.6841 2.74258 12.6087 2.71392 12.544C2.69243 12.4954 2.64489 12.467 2.59531 12.468ZM16.3362 12.4729C16.2866 12.4717 16.2391 12.5002 16.2175 12.5488C16.1888 12.6135 16.2175 12.6888 16.2819 12.7177L16.8457 12.9706C16.91 12.9995 16.985 12.9706 17.0137 12.9059C17.0424 12.8412 17.0137 12.7658 16.9493 12.7369L16.3856 12.484C16.3695 12.4768 16.3527 12.4732 16.3362 12.4729ZM3.69338 12.7501C3.66896 12.7483 3.64374 12.7538 3.62084 12.7671L2.3499 13.5049C2.28886 13.5403 2.26809 13.6183 2.30334 13.6797C2.33858 13.741 2.41609 13.7619 2.47714 13.7265L3.74807 12.9887C3.80912 12.9533 3.82988 12.8753 3.79464 12.8139C3.7726 12.7755 3.73409 12.753 3.69338 12.7501ZM15.2402 12.7501C15.1995 12.7529 15.1609 12.7755 15.1389 12.8139C15.1037 12.8753 15.1244 12.9533 15.1855 12.9887L16.4564 13.7265C16.5174 13.7619 16.595 13.741 16.6302 13.6797C16.6655 13.6183 16.6447 13.5403 16.5837 13.5049L15.3127 12.7671C15.2898 12.7538 15.2646 12.7484 15.2402 12.7501ZM3.37637 13.8329C3.35189 13.8338 3.32737 13.8417 3.30597 13.8573L2.80633 14.2219C2.74928 14.2635 2.73666 14.3432 2.77804 14.4005C2.81944 14.4579 2.89868 14.4706 2.95574 14.429L3.45543 14.0644C3.51249 14.0228 3.52511 13.9431 3.48373 13.8858C3.45785 13.8499 3.41716 13.8315 3.37637 13.8329ZM15.5541 13.8372C15.5134 13.8357 15.4727 13.8541 15.4468 13.89C15.4054 13.9473 15.4179 14.027 15.475 14.0687L15.9744 14.4336C16.0314 14.4752 16.1106 14.4626 16.1521 14.4052C16.1935 14.3479 16.181 14.2682 16.124 14.2266L15.6245 13.8617C15.6032 13.8461 15.5786 13.8381 15.5541 13.8372ZM4.508 13.8814C4.47552 13.8795 4.4424 13.8904 4.41619 13.9141L3.32476 14.9006C3.27234 14.948 3.26808 15.0286 3.31521 15.0813C3.36233 15.134 3.44245 15.1383 3.49488 15.0909L4.58631 14.1044C4.63873 14.057 4.64299 13.9764 4.59586 13.9237C4.57231 13.8974 4.54048 13.8831 4.508 13.8814ZM14.4225 13.8849C14.39 13.8867 14.3582 13.9008 14.3346 13.9272C14.2874 13.9799 14.2917 14.0604 14.344 14.1078L15.4348 15.0951C15.4871 15.1425 15.5673 15.1383 15.6145 15.0856C15.6616 15.033 15.6574 14.9524 15.605 14.905L14.5143 13.9177C14.4881 13.894 14.455 13.8832 14.4225 13.8849ZM5.54342 14.8221C5.50263 14.8206 5.46193 14.8389 5.43601 14.8748L4.57269 16.068C4.53122 16.1254 4.5437 16.2051 4.60068 16.2468C4.65768 16.2885 4.73696 16.2759 4.77843 16.2186L5.64175 15.0253C5.68322 14.968 5.67074 14.8883 5.61376 14.8466C5.59239 14.831 5.56789 14.8229 5.54342 14.8221ZM13.383 14.8274C13.3585 14.8283 13.334 14.8362 13.3126 14.8518C13.2556 14.8935 13.243 14.9731 13.2843 15.0305L14.1461 16.225C14.1875 16.2823 14.2667 16.295 14.3238 16.2534C14.3808 16.2118 14.3934 16.1321 14.3521 16.0747L13.4903 14.8803C13.4645 14.8444 13.4238 14.826 13.383 14.8274ZM4.42893 15.0117C4.39645 15.0136 4.3646 15.0277 4.34101 15.054L3.92796 15.5153C3.88079 15.568 3.88497 15.6486 3.93736 15.696C3.98975 15.7434 4.06987 15.7392 4.11703 15.6865L4.53014 15.2252C4.57731 15.1726 4.57308 15.0919 4.5207 15.0445C4.4945 15.0208 4.46141 15.01 4.42893 15.0117ZM14.5038 15.0123C14.4714 15.0105 14.4383 15.0214 14.4121 15.0451C14.3597 15.0926 14.3555 15.1731 14.4026 15.2258L14.8156 15.6872C14.8628 15.7399 14.9429 15.7441 14.9953 15.6967C15.0477 15.6492 15.0519 15.5686 15.0047 15.5159L14.5917 15.0546C14.5681 15.0283 14.5363 15.0141 14.5038 15.0123ZM6.74901 15.5241C6.69943 15.5229 6.65194 15.5514 6.6304 15.5999L6.03246 16.9475C6.00375 17.0123 6.03245 17.0876 6.09682 17.1165C6.16119 17.1454 6.23614 17.1165 6.26485 17.0518L6.86279 15.7042C6.8915 15.6395 6.8628 15.5641 6.79843 15.5352C6.78235 15.528 6.76554 15.5244 6.74901 15.5241ZM12.1765 15.5278C12.1599 15.5281 12.1431 15.5317 12.127 15.5389C12.0627 15.5677 12.0338 15.643 12.0625 15.7077L12.6585 17.0562C12.6871 17.1209 12.7621 17.1499 12.8265 17.1211C12.8909 17.0923 12.9197 17.017 12.8911 16.9522L12.295 15.6038C12.2735 15.5553 12.226 15.5268 12.1765 15.5278ZM5.69832 15.9407C5.65761 15.9435 5.61909 15.9661 5.59707 16.0045L5.28841 16.5421C5.25316 16.6034 5.27393 16.6814 5.33497 16.7168C5.39602 16.7523 5.47353 16.7314 5.50877 16.67L5.81743 16.1324C5.85267 16.071 5.83191 15.9931 5.77086 15.9577C5.74798 15.9444 5.72275 15.939 5.69832 15.9407ZM13.2352 15.9407C13.2108 15.9389 13.1856 15.9444 13.1627 15.9577C13.1017 15.9931 13.0809 16.0711 13.1162 16.1324L13.4248 16.67C13.4601 16.7314 13.5376 16.7523 13.5986 16.7168C13.6597 16.6814 13.6804 16.6034 13.6452 16.5421L13.3365 16.0045C13.3145 15.9661 13.2759 15.9436 13.2352 15.9407ZM8.08013 15.96C8.02086 15.9594 7.96775 16.0007 7.95493 16.0614L7.64995 17.5048C7.63529 17.5742 7.67903 17.6418 7.74797 17.6566C7.81692 17.6713 7.88422 17.6273 7.89887 17.558L8.20385 16.1145C8.21851 16.0452 8.17477 15.9775 8.10583 15.9628C8.09721 15.961 8.08859 15.96 8.08013 15.96ZM10.8489 15.9609C10.8404 15.961 10.8319 15.9618 10.8233 15.9636C10.7543 15.9783 10.7105 16.0459 10.7251 16.1153L11.0291 17.5589C11.0437 17.6283 11.111 17.6723 11.1799 17.6576C11.2489 17.6429 11.2926 17.5753 11.278 17.5059L10.9741 16.0624C10.9613 16.0017 10.9082 15.9604 10.8489 15.9609ZM9.46677 16.1065C9.39628 16.1065 9.33953 16.1636 9.33953 16.2344V17.7101C9.33953 17.781 9.39628 17.838 9.46677 17.838C9.53726 17.838 9.594 17.781 9.594 17.7101V16.2344C9.594 16.1636 9.53726 16.1065 9.46677 16.1065ZM7.13125 16.5833C7.08184 16.5876 7.0375 16.6208 7.02116 16.6713L6.83033 17.2617C6.80854 17.3291 6.84496 17.401 6.91199 17.4229C6.97902 17.4448 7.05054 17.4081 7.07233 17.3408L7.26315 16.7505C7.28494 16.6831 7.24852 16.6112 7.1815 16.5892C7.16475 16.5838 7.14772 16.5819 7.13125 16.5833ZM11.8013 16.5836C11.7848 16.5821 11.7678 16.5839 11.7511 16.5895C11.684 16.6114 11.6476 16.6833 11.6693 16.7507L11.8601 17.3411C11.8819 17.4085 11.9534 17.4451 12.0204 17.4232C12.0875 17.4013 12.1239 17.3294 12.1022 17.262L11.9113 16.6717C11.895 16.6211 11.8507 16.5879 11.8013 16.5836ZM8.66813 16.9124C8.60913 16.9182 8.56052 16.9647 8.55408 17.0264L8.48955 17.6437C8.48218 17.7142 8.53268 17.7769 8.60278 17.7843C8.67289 17.7917 8.73527 17.741 8.74264 17.6705L8.80716 17.0532C8.81454 16.9827 8.76404 16.92 8.69394 16.9125C8.68517 16.9116 8.67656 16.9116 8.66813 16.9124ZM10.2603 16.913C10.2519 16.9121 10.2432 16.9121 10.2344 16.9132C10.1643 16.9205 10.1138 16.9832 10.1211 17.0537L10.1852 17.6711C10.1925 17.7416 10.2549 17.7923 10.325 17.785C10.3951 17.7776 10.4456 17.715 10.4383 17.6445L10.3742 17.0271C10.3678 16.9654 10.3193 16.9188 10.2603 16.913Z" fill="#F4F2F3"/>
<g opacity="0.409" filter="url(#filter0_f_11378_48254)">
<path d="M15.4327 4.40344L8.47159 8.47009L4.07031 15.4371L10.509 10.6418L15.4327 4.40344Z" fill="black"/>
</g>
<path d="M10.464 10.5712L8.46875 8.47018L15.5467 3.68262L10.464 10.5712Z" fill="#FF5150"/>
<path d="M10.4686 10.5712L8.47335 8.47021L3.39062 15.3588L10.4686 10.5712Z" fill="#F1F1F1"/>
<path opacity="0.243" d="M3.39062 15.3588L10.4686 10.5712L15.5513 3.68262L3.39062 15.3588Z" fill="black"/>
<defs>
<filter id="filter0_f_11378_48254" x="1.52548" y="1.85861" width="16.453" height="16.1234" filterUnits="userSpaceOnUse" color-interpolation-filters="sRGB">
<feFlood flood-opacity="0" result="BackgroundImageFix"/>
<feBlend mode="normal" in="SourceGraphic" in2="BackgroundImageFix" result="shape"/>
<feGaussianBlur stdDeviation="1.27242" result="effect1_foregroundBlur_11378_48254"/>
</filter>
<linearGradient id="paint0_linear_11378_48254" x1="9.46835" y1="19.0414" x2="9.46835" y2="-4.99381e-05" gradientUnits="userSpaceOnUse">
<stop stop-color="#BDBDBD"/>
<stop offset="1" stop-color="white"/>
</linearGradient>
<radialGradient id="paint1_radial_11378_48254" cx="0" cy="0" r="1" gradientUnits="userSpaceOnUse" gradientTransform="translate(9.50826 8.24124) scale(9.46866 9.52075)">
<stop stop-color="#06C2E7"/>
<stop offset="0.25" stop-color="#0DB8EC"/>
<stop offset="0.5" stop-color="#12AEF1"/>
<stop offset="0.75" stop-color="#1F86F9"/>
<stop offset="1" stop-color="#107DDD"/>
</radialGradient>
</defs>
</svg>
