<svg width="20" height="20" viewBox="0 0 20 20" fill="none" xmlns="http://www.w3.org/2000/svg">
<path d="M4.88211 15.7634C5.97677 14.1643 7.77799 13.1253 10.0013 13.1253C12.2246 13.1253 14.0258 14.1643 15.1205 15.7634M4.88211 15.7634C6.24348 16.9736 8.03655 17.7087 10.0013 17.7087C11.9661 17.7087 13.7591 16.9736 15.1205 15.7634M4.88211 15.7634C3.29369 14.3515 2.29297 12.2927 2.29297 10.0003C2.29297 5.74313 5.74411 2.29199 10.0013 2.29199C14.2585 2.29199 17.7096 5.74313 17.7096 10.0003C17.7096 12.2927 16.7089 14.3515 15.1205 15.7634M12.7096 8.33366C12.7096 9.82941 11.4971 11.042 10.0013 11.042C8.50555 11.042 7.29297 9.82941 7.29297 8.33366C7.29297 6.83788 8.50555 5.62533 10.0013 5.62533C11.4971 5.62533 12.7096 6.83788 12.7096 8.33366Z" stroke="currentColor" stroke-width="1.5" stroke-linejoin="round"/>
</svg>
