<svg width="32" height="32" viewBox="0 0 32 32" fill="none" xmlns="http://www.w3.org/2000/svg">
<path fill-rule="evenodd" clip-rule="evenodd" d="M16 2.66663C10.8487 2.66663 6.59709 6.69303 6.33929 11.8281L6.07831 16.9952C6.07591 17.0425 6.06341 17.0889 6.04167 17.131L4.25945 20.5874C4.08829 20.9194 4 21.2881 4 21.6588C4 22.9397 5.037 24 6.33333 24H9.74517C10.2246 27.0226 12.8425 29.3333 16 29.3333C19.1576 29.3333 21.7753 27.0226 22.2548 24H25.6667C26.9631 24 28 22.9397 28 21.6588C28 21.2881 27.9117 20.9194 27.7405 20.5874L25.9584 17.131C25.9365 17.0889 25.9241 17.0425 25.9217 16.9952L25.6607 11.8285C25.4029 6.69336 21.1512 2.66663 16 2.66663ZM16 27.3333C13.9509 27.3333 12.2341 25.911 11.7826 24H20.2173C19.766 25.911 18.0491 27.3333 16 27.3333Z" fill="#A8A091"/>
</svg>
