<svg width="32" height="32" viewBox="0 0 32 32" fill="none" xmlns="http://www.w3.org/2000/svg">
<path fill-rule="evenodd" clip-rule="evenodd" d="M20.615 3.8335H20.0052C18.4404 3.8335 17.1719 5.10202 17.1719 6.66683C17.1719 8.23164 18.4404 9.50016 20.0052 9.50016H21.1719V10.6668C21.1719 12.2316 22.4404 13.5002 24.0052 13.5002C24.648 13.5002 25.2407 13.2861 25.7161 12.9255L25.9217 16.995C25.9241 17.0424 25.9365 17.0888 25.9584 17.1309L27.7405 20.5873C27.9117 20.9193 28 21.288 28 21.6586C28 22.9396 26.9631 23.9998 25.6667 23.9998H22.2548C21.7753 27.0225 19.1576 29.3332 16 29.3332C12.8425 29.3332 10.2246 27.0225 9.74517 23.9998H6.33333C5.037 23.9998 4 22.9396 4 21.6586C4 21.288 4.08829 20.9193 4.25945 20.5873L6.04167 17.1309C6.06341 17.0888 6.07591 17.0424 6.07831 16.995L6.33929 11.828C6.59709 6.6929 10.8487 2.6665 16 2.6665C17.6676 2.6665 19.2409 3.0885 20.615 3.8335ZM11.7826 23.9998C12.2341 25.9109 13.9509 27.3332 16 27.3332C18.0491 27.3332 19.766 25.9109 20.2173 23.9998H11.7826Z" fill="#A8A091"/>
<path fill-rule="evenodd" clip-rule="evenodd" d="M24.0052 1.8335C24.4654 1.8335 24.8385 2.20659 24.8385 2.66683V5.8335H28.0052C28.4654 5.8335 28.8385 6.20659 28.8385 6.66683C28.8385 7.12707 28.4654 7.50016 28.0052 7.50016H24.8385V10.6668C24.8385 11.1271 24.4654 11.5002 24.0052 11.5002C23.545 11.5002 23.1719 11.1271 23.1719 10.6668V7.50016H20.0052C19.545 7.50016 19.1719 7.12707 19.1719 6.66683C19.1719 6.20659 19.545 5.8335 20.0052 5.8335H23.1719V2.66683C23.1719 2.20659 23.545 1.8335 24.0052 1.8335Z" fill="#A8A091"/>
</svg>
