<svg width="16" height="16" viewBox="0 0 16 16" fill="none" xmlns="http://www.w3.org/2000/svg">
<path fill-rule="evenodd" clip-rule="evenodd" d="M7.9987 1.33325C4.3168 1.33325 1.33203 4.31802 1.33203 7.99992C1.33203 11.6818 4.3168 14.6666 7.9987 14.6666C11.6806 14.6666 14.6654 11.6818 14.6654 7.99992C14.6654 4.31802 11.6806 1.33325 7.9987 1.33325ZM7.16536 5.66658C7.0733 5.66658 6.9987 5.74121 6.9987 5.83325V6.16658C6.9987 6.44273 6.77483 6.66658 6.4987 6.66658C6.22256 6.66658 5.9987 6.44273 5.9987 6.16658V5.83325C5.9987 5.18892 6.52103 4.66658 7.16536 4.66658H8.83203C9.47636 4.66658 9.9987 5.18892 9.9987 5.83325V6.64313C9.9987 7.03319 9.80376 7.39745 9.47916 7.61385L8.5729 8.21805C8.52656 8.24892 8.4987 8.30098 8.4987 8.35672V8.83325C8.4987 9.10939 8.27483 9.33325 7.9987 9.33325C7.72256 9.33325 7.4987 9.10939 7.4987 8.83325V8.35672C7.4987 7.96665 7.69363 7.60238 8.01823 7.38598L8.9245 6.78179C8.97083 6.75092 8.9987 6.69885 8.9987 6.64313V5.83325C8.9987 5.74121 8.9241 5.66658 8.83203 5.66658H7.16536ZM7.9987 9.99992C7.6305 9.99992 7.33203 10.2984 7.33203 10.6666C7.33203 11.0348 7.6305 11.3333 7.9987 11.3333C8.3669 11.3333 8.66536 11.0348 8.66536 10.6666C8.66536 10.2984 8.3669 9.99992 7.9987 9.99992Z" fill="currentColor"/>
</svg>
