<svg width="32" height="32" viewBox="0 0 32 32" fill="none" xmlns="http://www.w3.org/2000/svg">
<path d="M15.6837 2.71795C15.8891 2.64952 16.1109 2.64952 16.3163 2.71795L27.3163 6.38461C27.7245 6.52072 28 6.90287 28 7.33329V12.3333C28 12.8856 27.5523 13.3333 27 13.3333H25V23.6666C25 24.2189 24.5523 24.6666 24 24.6666C23.4477 24.6666 23 24.2189 23 23.6666V13.3333H19.6667V23.6666C19.6667 24.2189 19.2189 24.6666 18.6667 24.6666C18.1144 24.6666 17.6667 24.2189 17.6667 23.6666V13.3333H14.3333V23.6666C14.3333 24.2189 13.8856 24.6666 13.3333 24.6666C12.7811 24.6666 12.3333 24.2189 12.3333 23.6666V13.3333H9V23.6666C9 24.2189 8.55228 24.6666 8 24.6666C7.44772 24.6666 7 24.2189 7 23.6666V13.3333H5C4.44772 13.3333 4 12.8856 4 12.3333V7.33329C4 6.90287 4.27543 6.52072 4.68377 6.38461L15.6837 2.71795Z" fill="#A8A091"/>
<path d="M28 26H4V28H28V26Z" fill="#A8A091"/>
</svg>
