<svg width="20" height="20" viewBox="0 0 20 20" fill="none" xmlns="http://www.w3.org/2000/svg">
<path d="M13.2087 10.577L9.91063 7.38641C9.51215 7.00183 9.17694 6.5737 8.905 6.10204C8.63306 5.63037 8.49708 5.11669 8.49708 4.561C8.49708 3.8728 8.73799 3.28787 9.21979 2.8062C9.70146 2.3244 10.2864 2.0835 10.9746 2.0835C11.4244 2.0835 11.8398 2.19197 12.2206 2.40891C12.6016 2.62572 12.931 2.9019 13.2087 3.23745C13.4865 2.9019 13.8158 2.62572 14.1967 2.40891C14.5775 2.19197 14.9928 2.0835 15.4427 2.0835C16.1309 2.0835 16.7158 2.3244 17.1975 2.8062C17.6793 3.28787 17.9202 3.8728 17.9202 4.561C17.9202 5.11669 17.7864 5.63037 17.5187 6.10204C17.2511 6.5737 16.9181 7.00183 16.5196 7.38641L13.2087 10.577ZM13.2087 8.83683L15.5917 6.52745C15.8715 6.25287 16.1213 5.95426 16.3408 5.63162C16.5604 5.30898 16.6702 4.95211 16.6702 4.561C16.6702 4.21808 16.5513 3.9278 16.3135 3.69016C16.0759 3.45238 15.7856 3.3335 15.4427 3.3335C15.1788 3.3335 14.9374 3.40238 14.7183 3.54016C14.4993 3.67808 14.3059 3.8528 14.1381 4.06433L13.2087 5.19558L12.2792 4.06433C12.1114 3.8528 11.918 3.67808 11.699 3.54016C11.4801 3.40238 11.2386 3.3335 10.9746 3.3335C10.6317 3.3335 10.3414 3.45238 10.1038 3.69016C9.86597 3.9278 9.74708 4.21808 9.74708 4.561C9.74708 4.95211 9.85687 5.30898 10.0765 5.63162C10.296 5.95426 10.5458 6.25287 10.8256 6.52745L13.2087 8.83683ZM5.58854 15.481L11.6365 17.1925L16.6108 15.6508C16.5682 15.4618 16.4801 15.3168 16.3465 15.2158C16.2128 15.1148 16.0617 15.0643 15.8929 15.0643H11.8119C11.4483 15.0643 11.1393 15.0504 10.885 15.0227C10.6307 14.9949 10.3694 14.934 10.1012 14.84L8.22 14.2181L8.59 12.9937L10.2775 13.5804C10.5297 13.6658 10.8209 13.724 11.151 13.755C11.4812 13.7859 11.9507 13.8057 12.5596 13.8143C12.5596 13.6081 12.5131 13.4302 12.4202 13.2806C12.3273 13.131 12.2049 13.03 12.0531 12.9777L7.21833 11.202C7.20222 11.1968 7.1875 11.1928 7.17417 11.1902C7.16083 11.1874 7.14618 11.186 7.13021 11.186H5.58854V15.481ZM1.42188 17.9168V9.9362H7.12062C7.20812 9.9362 7.29674 9.94579 7.38646 9.96495C7.47632 9.98426 7.55965 10.0067 7.63646 10.0322L12.4923 11.8208C12.8705 11.9606 13.1846 12.2082 13.4346 12.5635C13.6846 12.9188 13.8096 13.3357 13.8096 13.8143H15.8929C16.4913 13.8143 16.9787 14.0075 17.3552 14.3937C17.7319 14.7798 17.9202 15.2811 17.9202 15.8977V16.5706L11.6781 18.5097L5.58854 16.7727V17.9168H1.42188ZM2.67188 16.6668H4.33854V11.186H2.67188V16.6668Z" fill="#B5362D"/>
</svg>
