<?xml version="1.0" encoding="UTF-8" standalone="no"?>
<svg
   version="1.1"
   viewBox="0 0 192 192"
   id="svg1488"
   width="192"
   height="192"
   xmlns="http://www.w3.org/2000/svg"
   xmlns:svg="http://www.w3.org/2000/svg">
  <defs>
    <style>rect {fill:#b53c2c;fill-opacity:1;}path {fill: #fff;}</style>
  </defs>
  <rect
     width="192"
     height="192"
     x="0"
     y="0"
     ry="33.647999" />
  <path
     d="M 160.76673,127.89244 H 30.603616 v 10.0067 c 0.05183,12.10741 7.958612,19.53223 20.930145,19.53223 28.337553,-0.0484 56.657829,-0.12816 85.047049,-0.17643 2.5667,-0.0484 5.27125,-0.12817 7.80359,-0.76971 15.62439,-3.86476 18.51844,-15.89201 16.39959,-28.59279 z"/>
  <path
     d="m 88.530433,15.325737 c 0,8.483223 0,16.966447 -0.137633,25.44967 -0.05183,1.619673 -0.327228,3.399704 -0.878566,4.90712 -9.353961,24.631814 -18.794044,49.183452 -28.010183,73.735083 -0.826898,2.16489 -1.82601,2.87051 -4.151603,2.82239 -8.148132,-0.12816 -16.26176,0 -24.392641,0.0483 -2.70458,0 -3.772615,0.99423 -3.772615,3.22328 0,2.22906 1.205856,3.27141 4.099901,3.22331 7.803595,0 15.52104,-0.17639 23.290157,-0.22459 35.193684,-0.12816 70.35285,-0.30462 105.5982,-0.40089 3.18689,0 4.72008,-1.12256 4.63392,-3.27142 -0.0862,-2.16491 -1.3953,-3.09503 -4.53056,-3.09503 -6.71829,0 -13.38495,0 -20.05159,0.12832 -1.92934,0.0481 -2.84236,-0.52918 -3.56586,-2.22905 -11.18,-24.551642 -22.35998,-49.055165 -33.55717,-73.622839 -0.37898,-0.769744 -0.56848,-1.571562 -0.56848,-2.389413 V 15.389817 Z M 124.63709,121.69474 H 71.30398 C 79.26259,100.76736 87.255705,79.775783 95.231501,58.816287 h 0.689083 c 9.543446,20.815168 19.035266,41.646353 28.699256,62.878453 h 0.033 z"/>
</svg>
