<svg width="32" height="32" viewBox="0 0 32 32" fill="none" xmlns="http://www.w3.org/2000/svg">
<path fill-rule="evenodd" clip-rule="evenodd" d="M15.9948 2.6665H8.99479C6.96975 2.6665 5.32812 4.30813 5.32812 6.33317V25.6665C5.32812 27.6916 6.96975 29.3332 8.99479 29.3332H22.9948C25.0199 29.3332 26.6615 27.6916 26.6615 25.6665V13.3332H19.6615C17.6364 13.3332 15.9948 11.6915 15.9948 9.6665V2.6665ZM10.6615 18.9998C10.6615 18.4476 11.1092 17.9998 11.6615 17.9998H16.3281C16.8804 17.9998 17.3281 18.4476 17.3281 18.9998C17.3281 19.5521 16.8804 19.9998 16.3281 19.9998H11.6615C11.1092 19.9998 10.6615 19.5521 10.6615 18.9998ZM11.6615 23.3332C11.1092 23.3332 10.6615 23.7809 10.6615 24.3332C10.6615 24.8854 11.1092 25.3332 11.6615 25.3332H20.3281C20.8804 25.3332 21.3281 24.8854 21.3281 24.3332C21.3281 23.7809 20.8804 23.3332 20.3281 23.3332H11.6615Z" fill="#A8A091"/>
<path d="M26.0755 11.3334C26.0457 11.3 26.0149 11.2675 25.9832 11.2357L18.0976 3.35011C18.0659 3.31837 18.0333 3.28764 18 3.25793V9.66669C18 10.5872 18.7461 11.3334 19.6667 11.3334H26.0755Z" fill="#A8A091"/>
</svg>
