<svg xmlns="http://www.w3.org/2000/svg" width="20" height="20" viewBox="0 0 20 20" fill="none">
  <path d="M9.79033 3.64216C9.79033 2.74101 10.8571 2.26502 11.5277 2.86691L18.6122 9.22482C19.0735 9.63873 19.0735 10.3614 18.6122 10.7753L11.5277 17.1331C10.8571 17.7351 9.79033 17.2591 9.79033 16.3579V13.5458C6.67078 13.5875 5.03841 13.9473 4.05623 14.5025C3.06058 15.0652 2.66333 15.8598 2.03598 17.1146L2.01605 17.1546C1.88642 17.4138 1.59554 17.5499 1.31343 17.4833C1.03133 17.4167 0.832031 17.1649 0.832031 16.8751C0.832031 13.3206 1.29199 10.6625 2.80764 8.91365C4.25493 7.24369 6.53468 6.54261 9.79033 6.46559V3.64216Z" fill="currentColor"/>
</svg>
