<svg width="20" height="20" viewBox="0 0 20 20" fill="none" xmlns="http://www.w3.org/2000/svg">
<path d="M1.66797 3.10787C1.66797 2.58625 1.66797 2.32545 1.7588 2.12621C1.83869 1.95097 1.96617 1.80848 2.12298 1.71919C2.30124 1.61768 2.53459 1.61768 3.0013 1.61768H17.0013C17.468 1.61768 17.7014 1.61768 17.8796 1.71919C18.0364 1.80848 18.1639 1.95097 18.2438 2.12621C18.3346 2.32545 18.3346 2.58625 18.3346 3.10787V3.73133C18.3346 3.98168 18.3346 4.10685 18.3073 4.22325C18.283 4.3264 18.2431 4.42412 18.1892 4.51216C18.1285 4.61151 18.0438 4.69349 17.8745 4.85745L12.5447 10.0201C12.3755 10.184 12.2908 10.266 12.23 10.3653C12.1762 10.4534 12.1363 10.5511 12.112 10.6543C12.0846 10.7707 12.0846 10.8958 12.0846 11.1462V16.0152C12.0846 16.1973 12.0846 16.2884 12.0584 16.3671C12.0351 16.4367 11.9974 16.4991 11.9482 16.549C11.8925 16.6055 11.8169 16.6393 11.6656 16.707L8.83223 17.9737C8.52594 18.1106 8.3728 18.179 8.24986 18.1505C8.14236 18.1255 8.04801 18.0541 7.98735 17.9519C7.91797 17.8349 7.91797 17.6505 7.91797 17.2818V11.1462C7.91797 10.8958 7.91797 10.7707 7.8906 10.6543C7.86634 10.5511 7.82642 10.4534 7.77256 10.3653C7.71179 10.266 7.62715 10.184 7.45788 10.0201L2.12806 4.85745C1.95879 4.69349 1.87415 4.61151 1.81338 4.51216C1.75952 4.42412 1.7196 4.3264 1.69534 4.22325C1.66797 4.10685 1.66797 3.98168 1.66797 3.73133V3.10787Z" stroke="currentColor" stroke-width="1.66667" stroke-linecap="round" stroke-linejoin="round"/>
</svg>
