<svg width="20" height="20" viewBox="0 0 20 20" fill="none" xmlns="http://www.w3.org/2000/svg">
<path d="M3.33594 5.83333C3.33594 3.99238 4.82832 2.5 6.66927 2.5C8.51024 2.5 10.0026 3.99238 10.0026 5.83333C10.0026 7.67428 8.51024 9.16667 6.66927 9.16667C4.82832 9.16667 3.33594 7.67428 3.33594 5.83333Z" fill="currentColor"/>
<path d="M11.25 6.25001C11.25 4.63918 12.5558 3.33334 14.1667 3.33334C15.7775 3.33334 17.0833 4.63918 17.0833 6.25001C17.0833 7.86084 15.7775 9.16668 14.1667 9.16668C12.5558 9.16668 11.25 7.86084 11.25 6.25001Z" fill="currentColor"/>
<path d="M6.66366 10C5.19279 10 3.96685 10.5289 3.02605 11.4334C2.09542 12.3283 1.46965 13.564 1.12476 14.9546C0.774797 16.3656 1.95696 17.5 3.2483 17.5H10.079C11.3704 17.5 12.5525 16.3656 12.2025 14.9546C11.8577 13.564 11.2319 12.3283 10.3013 11.4334C9.36046 10.5289 8.13453 10 6.66366 10Z" fill="currentColor"/>
<path d="M11.8125 10.5957C12.8207 11.7102 13.4645 13.1053 13.8237 14.5533C14.0167 15.3317 13.9631 16.0452 13.7381 16.6667H16.9551C18.2366 16.6667 19.4517 15.5288 19.0459 14.1042C18.3848 11.7832 16.7553 10 14.1667 10C13.2657 10 12.4808 10.2161 11.8125 10.5957Z" fill="currentColor"/>
</svg>
