<?xml version="1.0" encoding="UTF-8" standalone="no"?>
<svg width="70"
     height="40"
     version="1.1"
     xmlns="http://www.w3.org/2000/svg">
  <title>CourtListener</title>
  <g>
    <path fill="#AE0B0B"
          d="m 22.75,1.1875 c -5.702744,0 -10.8018,1.5346135 -14.8046875,4.6601562 -4.1673901,3.2352102 -6.9101561,8.4446668 -6.9101563,14.5312498 0,7.073596 3.4003829,12.064204 7.7871094,15.080078 4.0028874,2.68687 8.7192294,3.673829 13.6542964,3.673828 3.509382,0 7.45576,-0.823046 8.66211,-1.261718 0.603175,-0.219337 1.261913,-0.43916 1.919922,-0.548828 0.822511,-1.041848 2.248974,-4.660347 2.632812,-7.511719 -0.219336,-0.383839 -1.041942,-0.492921 -1.425781,-0.21875 -1.261184,3.235211 -4.387342,7.839844 -11.460937,7.839844 -8.992789,0 -16.2851568,-6.359844 -16.2851568,-17.875 0,-11.3506551 7.1279638,-16.6699223 15.5175778,-16.6699222 7.950941,0 10.417724,4.2771421 11.240235,8.0058592 0.383838,0.329005 1.206299,0.274464 1.480468,-0.109375 C 34.31914,7.4383244 34.045068,3.9838401 33.990234,2.7226562 33.496728,2.7774904 33.113087,2.6684086 32.455078,2.5039062 29.877876,1.7910633 25.71104,1.1875 22.75,1.1875 z"
    />
    <path fill="#000099"
          d="M 39.172074,2.3904377 C 38.843069,2.55494 38.731741,3.5421952 39.060746,3.7615315 l 1.371094,0.109375 c 3.454545,0.2741704 3.564453,1.259395 3.564453,7.0169725 v 19.849005 c 0,5.757578 -0.108688,6.61348 -3.289062,6.942485 l -1.646485,0.164062 c -0.329005,0.329005 -0.217677,1.206592 0.111328,1.371094 3.07071,-0.109668 5.067536,-0.251079 7.370565,-0.251079 h 4.82699 c 5.647909,0 10.857758,0.141406 13.654297,0.251079 0.767676,-1.48052 2.302735,-7.07456 2.302735,-7.677734 0,-0.383839 -1.042089,-0.602296 -1.371094,-0.328126 -1.096682,2.796539 -2.522459,4.769726 -3.619141,5.427735 -0.877346,0.493507 -2.028556,0.712891 -6.689453,0.712891 -4.331891,0 -5.373387,-0.743607 -5.976562,-1.346782 -0.987012,-1.041848 -1.152344,-2.469281 -1.152344,-5.923828 V 10.887879 c 0,-5.7575775 0.110493,-6.7428021 3.345703,-7.0169725 l 1.316406,-0.109375 C 53.509182,3.5421952 53.399807,2.55494 53.070801,2.3904377 c -2.741699,0.1096682 -4.389634,0.2728326 -6.528162,0.2728326 -2.193364,0 -4.299855,-0.1631641 -7.370565,-0.2728326 z"
    />
  </g>
</svg>
