<?xml version="1.0" encoding="UTF-8" standalone="no"?>
<svg width="360"
     height="40"
     version="1.1"
     xmlns="http://www.w3.org/2000/svg">
   <title>CourtListener</title>
   <g>
      <path fill="#AE0B0B"
            d="m 1.082134,20.97581 c 0,7.136113 3.4297624,12.113215 7.8552597,15.155745 4.0382643,2.710617 8.7956803,3.771618 13.7743643,3.771618 3.540392,0 7.523342,-0.895045 8.740355,-1.337595 0.608502,-0.221275 1.272329,-0.44255 1.936155,-0.553187 0.829781,-1.051056 2.268064,-4.64519 2.655297,-7.521763 -0.221279,-0.387231 -1.05106,-0.497869 -1.438283,-0.221275 -1.272338,3.263804 -4.425497,7.999409 -11.561616,7.999409 -9.072273,0 -16.4296604,-6.505804 -16.4296604,-18.122733 0,-11.4509553 7.1914334,-16.8168722 15.6551944,-16.8168722 8.021214,0 10.510557,4.31486 11.340337,8.0765152 0.387233,0.331912 1.217014,0.276593 1.493608,-0.110638 -0.442548,-3.3744236 -0.719142,-6.8595039 -0.774457,-8.1318325 -0.497872,0.05532 -0.885105,-0.05532 -1.548931,-0.2212751 -2.599972,-0.719143 -6.804201,-1.3276499 -9.791405,-1.3276499 -5.753151,0 -10.89779,1.5489247 -14.9360539,4.7020908 C 3.8480698,9.5801718 1.082134,14.835432 1.082134,20.97581 Z m 51.833591,-6.834335 c -8.021214,0 -13.663725,5.72796 -13.663725,13.085349 0,6.970158 5.089324,12.565711 13.663725,12.565711 7.799944,0 13.442455,-5.429597 13.442455,-12.897624 0,-6.748882 -4.536136,-12.753436 -13.442455,-12.753436 z m -0.387224,1.632727 c 6.085059,0 8.90631,6.031388 8.90631,11.95049 0,7.578664 -4.038265,10.54407 -8.242493,10.54407 -6.416967,0 -9.016949,-6.22921 -9.016949,-11.927038 0,-7.799938 4.370183,-10.567522 8.353132,-10.567522 z m 19.470163,13.886645 c 1.2e-5,3.595717 0.719141,6.083477 2.378703,7.743038 1.659561,1.604243 3.773536,2.38865 7.313937,2.38865 7.02547,0 10.289278,-3.714717 10.289278,-10.795512 V 23.52047 c 0,-5.476552 0.442548,-6.970158 1.88083,-7.136114 L 95.520974,16.2184 c 0.387233,-0.276594 0.387233,-1.106374 -0.05534,-1.382968 -1.770201,0.110638 -2.987215,0.165956 -4.591452,0.165956 -1.604246,0 -2.876575,-0.05532 -4.646776,-0.165956 -0.442548,0.276594 -0.497862,1.051056 -0.110629,1.382968 l 1.161689,0.165956 c 2.378703,0.331912 2.710621,1.604243 2.710621,7.136114 v 5.14464 c 0,5.476553 -2.157434,9.327059 -7.136119,9.327059 -5.365917,0 -6.84963,-3.850506 -6.84963,-9.382377 v -7.799939 c 0,-3.816991 0.221279,-4.038266 2.599982,-4.425497 L 79.625887,16.2184 c 0.387233,-0.276594 0.331918,-1.217012 -0.11063,-1.382968 -2.157434,0.110638 -3.644308,0.165956 -5.414509,0.165956 -1.770201,0 -3.485077,-0.05532 -5.365917,-0.165956 -0.442548,0.165956 -0.497873,1.106374 -0.11064,1.382968 l 0.774462,0.165956 c 2.323389,0.497869 2.599969,0.608506 2.599982,4.425497 z m 30.007386,3.483497 c 0,3.816991 -0.22128,3.927629 -2.599984,4.425497 l -0.82978,0.165956 c -0.497863,0.221275 -0.442548,1.217012 0.110639,1.382968 1.936155,-0.110637 3.565585,-0.165956 5.335785,-0.165956 1.71488,0 3.42647,0.05532 5.74986,0.165956 0.44254,-0.165956 0.49786,-1.106374 0.11063,-1.382968 l -1.27233,-0.165956 c -2.37871,-0.331912 -2.59998,-0.608506 -2.59998,-4.425497 v -3.870728 c 0,-0.774462 0.11063,-0.885099 1.54893,-0.885099 0.88509,0 1.88412,0.221275 2.32668,0.885099 1.16169,1.770199 2.65529,4.147322 4.03826,5.917521 2.43402,3.097848 4.4255,4.148903 7.74462,4.148903 1.05105,0 1.82552,-0.110637 2.32338,-0.276593 0.22128,-0.165956 0.22128,-0.663825 0,-0.8851 -0.8851,-0.05532 -1.93616,-0.331912 -2.93189,-1.161693 -1.82552,-1.493605 -4.25954,-4.147321 -7.02547,-8.794093 -0.16596,-0.276594 -0.22128,-0.608506 0,-0.829781 2.15742,-0.774462 4.92336,-2.378705 4.92336,-5.919102 0,-5.977111 -5.70112,-6.991103 -10.84576,-6.991103 -3.04252,0 -5.941,0.110638 -8.983527,0.331913 -0.553187,0.165956 -0.442548,1.327649 0,1.382967 l 1.548917,0.221275 c 1.27234,0.165957 1.32766,1.054584 1.32766,4.6503 z m 4.00484,-15.177287 c 0,-1.438287 0.38723,-1.548924 2.43402,-1.548924 3.87231,0 5.9224,2.253191 5.9224,5.221501 0,3.816991 -1.99477,5.255277 -5.59049,5.255277 -2.71061,0 -2.76593,0 -2.76593,-1.382968 z m 26.96964,15.177287 c 0,3.816991 -0.27824,4.148904 -2.65695,4.425497 l -1.4936,0.165956 c -0.38724,0.276594 -0.33191,1.217012 0.11063,1.382968 2.32339,-0.110637 4.31486,-0.165956 6.08506,-0.165956 1.71488,0 3.66851,0.05532 5.93657,0.165956 0.44255,-0.165956 0.49787,-1.106374 0.11064,-1.382968 l -1.49361,-0.165956 c -2.3787,-0.276593 -2.59998,-0.608506 -2.59998,-4.425497 V 17.960905 c 0,-1.438287 0.16596,-1.438287 1.21702,-1.438287 h 2.02933 c 3.31912,0 4.7574,0.525559 5.14464,4.121279 0.22126,0.44255 1.16168,0.387231 1.38296,-0.05531 -0.11064,-2.102112 0.11064,-5.034004 0.55319,-6.47229 -0.16595,-0.276594 -0.60851,-0.387231 -0.99573,-0.165956 -0.44256,0.995736 -0.82979,1.051055 -2.87658,1.051055 h -15.3786 c -2.21275,0 -2.98722,0.05532 -3.04253,-1.051055 -0.22128,-0.221275 -0.77447,-0.221275 -0.99575,0 -0.27659,1.382967 -0.88509,4.148903 -1.49359,6.527608 0.22127,0.44255 0.82978,0.608506 1.38297,0.276594 1.32764,-3.816992 2.76593,-4.231917 6.14037,-4.231917 h 1.71488 c 1.10637,0 1.21866,0 1.21866,1.438287 z"
      />
      <path fill="#000099"
            d="m 154.99431,30.711974 c 0,5.808465 -0.11064,6.526026 -3.31913,6.857938 l -1.65956,0.165957 c -0.33191,0.331912 -0.22128,1.217011 0.11064,1.382968 3.09784,-0.110638 4.73771,-0.165957 7.06109,-0.165957 h 5.08933 c 5.69782,0 11.03622,0.05532 13.85747,0.165957 0.77447,-1.493606 2.32339,-7.136115 2.32339,-7.744621 0,-0.387231 -1.05106,-0.551605 -1.38297,-0.275011 -1.10637,2.821254 -2.54465,4.777238 -3.65103,5.441063 -0.8851,0.497868 -2.12991,0.719143 -6.832,0.719143 -4.37019,0 -5.81721,-0.663824 -6.42572,-1.27233 -0.99573,-1.051056 -1.16169,-2.453853 -1.16169,-5.938932 V 10.797237 c 0,-5.8084491 0.11064,-6.6935477 3.37444,-6.9701398 l 1.32765,-0.1106378 c 0.33191,-0.221275 0.22127,-1.2170112 -0.11064,-1.382968 -2.76593,0.1106379 -4.2508,0.1659571 -6.40823,0.1659571 -2.21274,0 -3.96325,-0.05532 -7.06109,-0.1659571 -0.33192,0.1659571 -0.44255,1.161693 -0.11064,1.3829678 l 1.38297,0.1106379 c 3.48508,0.2765926 3.59572,1.161692 3.59572,6.9701399 z m 30.00097,2.432441 c 0,3.816992 -0.22128,4.038266 -2.59998,4.425497 l -1.05105,0.165957 c -0.38723,0.276593 -0.33192,1.217011 0.11063,1.382968 2.15743,-0.110638 3.69317,-0.165957 5.46337,-0.165957 1.71488,0 3.52931,0.05532 5.63142,0.165957 0.44255,-0.165957 0.49786,-1.106375 0.11064,-1.382968 l -1.05106,-0.165957 c -2.3787,-0.387231 -2.59998,-0.608505 -2.59998,-4.425497 v -12.33449 c 0,-3.816992 0.22128,-4.038267 2.59998,-4.425498 l 1.05106,-0.165956 c 0.38722,-0.276593 0.33191,-1.217012 -0.11064,-1.382968 -2.15743,0.110638 -3.86122,0.165956 -5.63142,0.165956 -1.7702,0 -3.30594,-0.05531 -5.46337,-0.165956 -0.44255,0.165956 -0.49786,1.106375 -0.11063,1.382968 l 1.05105,0.165956 c 2.3787,0.387231 2.59998,0.608506 2.59998,4.425498 z m 19.96655,-4.147321 c 3.15316,1.604242 3.87231,3.372859 3.87231,5.143058 0,2.544661 -1.82552,4.128682 -4.64678,4.128682 -3.70635,0 -6.14037,-4.073363 -6.58292,-6.064837 -0.38723,-0.497868 -1.21701,-0.44255 -1.43829,0.110637 0,2.931892 0.66382,4.923366 1.1617,5.697828 0.77445,0.553187 2.9872,1.71488 6.36165,1.71488 5.47654,0 9.01695,-2.710617 9.01695,-7.025477 0,-3.706354 -2.48935,-5.972839 -4.48082,-6.968576 l -3.42976,-1.770199 c -2.21275,-1.161692 -3.70635,-2.378703 -3.70635,-4.370177 0,-1.880837 1.21701,-3.842775 4.48081,-3.842775 3.26381,0 4.70209,2.902357 5.14465,4.838512 0.27659,0.387231 1.27233,0.331912 1.43828,-0.110638 0.0553,-2.378704 -0.33191,-4.480816 -0.77447,-5.421234 -1.88083,-0.331912 -3.20848,-0.829781 -5.14464,-0.829781 -5.58718,0 -8.68504,2.821255 -8.68504,6.859521 0,3.097847 2.26808,5.255277 4.92337,6.638245 z m 21.03663,4.147321 c 0,3.816992 -0.23858,4.148904 -2.61728,4.425497 l -1.49361,0.165957 c -0.38723,0.276593 -0.33191,1.217011 0.11064,1.382968 2.32339,-0.110638 4.20093,-0.165957 5.97113,-0.165957 1.71488,0 3.74991,0.05532 6.01798,0.165957 0.44255,-0.165957 0.49786,-1.106375 0.11064,-1.382968 l -1.49361,-0.165957 c -2.3787,-0.276593 -2.59998,-0.608505 -2.59998,-4.425497 V 17.962887 c 0,-1.438287 0.16595,-1.438287 1.21701,-1.438287 h 1.88083 c 3.31913,0 4.75742,0.523652 5.14465,4.119368 0.22127,0.44255 1.16169,0.387231 1.38297,-0.05531 -0.11064,-2.102112 0.11063,-5.034004 0.55319,-6.47229 -0.16597,-0.276594 -0.60851,-0.387231 -0.99575,-0.165956 -0.44254,0.995737 -0.82978,1.049997 -2.87656,1.051055 l -15.1976,0.0079 c -2.21275,0.0011 -2.98721,0.143563 -3.04253,-0.962812 -0.22127,-0.221275 -0.77446,-0.317375 -0.99574,-0.0961 -0.27659,1.382968 -0.88509,4.148903 -1.49361,6.527608 0.22128,0.44255 0.82979,0.608506 1.38297,0.276594 1.32766,-3.816992 2.76594,-4.230006 6.14039,-4.230006 h 1.73217 c 1.10638,0 1.1617,0 1.1617,1.438287 z m 21.00245,0 c 0,3.816992 -0.12415,4.148904 -2.50285,4.425497 l -1.49361,0.165957 c -0.38724,0.276593 -0.33192,1.217011 0.11064,1.382968 2.65529,-0.110638 4.27256,-0.165957 6.04276,-0.165957 h 4.66937 c 2.98721,0 5.9191,0.05532 9.40418,0.165957 0.6085,-1.051056 1.38297,-3.816992 1.65956,-6.140378 -0.16595,-0.497868 -1.05106,-0.608506 -1.43828,-0.221275 -1.60425,4.425497 -3.65495,4.737188 -7.19535,4.737188 -3.15317,0 -4.1489,-0.221275 -4.64677,-0.774462 -0.49788,-0.608506 -0.6085,-2.469121 -0.6085,-4.128682 v -3.926047 c 0,-1.106374 0,-1.27233 1.05105,-1.27233 h 2.60389 c 2.93189,0 3.20848,0.44255 3.65103,2.102111 l 0.27659,1.051056 c 0.2766,0.387231 1.10638,0.331912 1.38297,-0.110638 -0.11063,-1.604242 -0.11063,-2.599979 -0.11063,-3.982947 0,-1.272331 0,-2.268068 0.11063,-3.872309 -0.27659,-0.44255 -1.10637,-0.497869 -1.38297,-0.110638 l -0.27659,1.051055 c -0.44255,1.659561 -0.71914,2.102111 -3.65103,2.102111 h -2.60389 c -1.05105,0 -1.05105,-0.110637 -1.05105,-1.106374 v -6.221479 c 0,-1.71488 0.0553,-1.770199 1.99147,-1.770199 h 2.43793 c 1.32765,0 3.81699,0 4.70209,1.327649 0.33191,0.497869 0.66382,1.298114 0.99574,2.736401 0.33191,0.387231 1.21701,0.331912 1.43828,-0.110638 -0.27659,-2.378704 -0.55319,-4.978684 -0.6085,-5.642509 -0.49787,0.110638 -2.71062,0.165956 -5.14464,0.165956 h -7.65658 c -1.82551,0 -3.44279,-0.05531 -5.04703,-0.165956 -0.44255,0.221275 -0.49787,1.161693 -0.11064,1.382968 l 0.77447,0.165956 c 2.10211,0.44255 2.22626,0.608506 2.22626,4.425498 z m 42.99898,-3.206903 c 0,1.327649 0,2.102111 -0.33192,2.212749 -0.6085,-0.44255 -3.81699,-3.927629 -5.034,-5.144641 l -5.19995,-5.365915 c -2.26808,-2.323386 -4.3344,-4.702091 -5.44077,-6.804202 -0.66382,0.110638 -1.4461,0.165956 -2.22056,0.165956 -1.16169,0 -2.59548,0 -4.69759,-0.165956 -0.49787,0.221275 -0.49787,1.051056 -0.11064,1.382968 l 0.82978,0.165956 c 0.55319,0.110638 1.60425,0.44255 2.0468,0.774462 1.10637,0.829781 1.16169,1.604243 1.16169,3.429761 v 9.845148 c 0,5.476553 -0.44255,6.970158 -1.88083,7.136114 l -1.65957,0.165957 c -0.38723,0.276593 -0.38723,1.161693 0.0553,1.382968 1.93615,-0.110638 2.98721,-0.165957 4.59145,-0.165957 1.60425,0 2.88438,0.05532 4.93118,0.165957 0.44255,-0.276594 0.55319,-1.051056 0.11064,-1.382968 l -1.7702,-0.165957 c -2.0468,-0.165956 -2.37871,-1.604242 -2.37871,-7.136114 v -7.30207 c 0,-1.71488 0,-2.323386 0.22127,-2.323386 0.71916,0.608506 2.15744,2.046793 4.25955,4.259541 l 8.40844,8.961632 c 3.42977,3.706354 4.53614,4.868047 5.14464,5.642509 0.49787,0.110637 0.96973,-0.165956 1.13569,-0.497869 -0.16596,-0.829781 -0.16596,-5.310597 -0.16596,-6.416971 v -9.236643 c 0,-5.476552 0.44255,-6.970158 1.88084,-7.136114 l 1.65956,-0.165956 c 0.38723,-0.276593 0.38723,-1.106374 -0.0553,-1.382968 -1.7702,0.110638 -3.00149,0.165956 -4.60574,0.165956 -1.60423,0 -2.87657,-0.05531 -4.92336,-0.165956 -0.44254,0.276594 -0.49787,1.051056 -0.11064,1.382968 l 1.77021,0.165956 c 2.04678,0.165956 2.3787,1.604243 2.3787,7.136114 z m 12.00884,3.206903 c 0,3.816992 -0.22128,4.148904 -2.59998,4.425497 l -1.49361,0.165957 c -0.38723,0.276593 -0.33191,1.217011 0.11064,1.382968 2.6553,-0.110638 4.37017,-0.165957 6.14037,-0.165957 h 4.89653 c 2.98721,0 5.9191,0.05532 9.40418,0.165957 0.60851,-1.051056 1.38297,-3.816992 1.65956,-6.140378 -0.16595,-0.497868 -1.05105,-0.608506 -1.43828,-0.221275 -1.60425,4.425497 -3.8789,4.737188 -7.4193,4.737188 -3.15317,0 -4.14891,-0.221275 -4.64678,-0.774462 -0.49786,-0.608506 -0.6085,-2.469121 -0.6085,-4.128682 v -3.926047 c 0,-1.106374 0,-1.27233 1.05106,-1.27233 h 2.70821 c 2.9319,0 3.20849,0.44255 3.65104,2.102111 l 0.27659,1.051056 c 0.2766,0.387231 1.10638,0.331912 1.38297,-0.110638 -0.11064,-1.604242 -0.11064,-2.599979 -0.11064,-3.982947 0,-1.272331 0,-2.268068 0.11064,-3.872309 -0.27659,-0.44255 -1.10637,-0.497869 -1.38297,-0.110638 l -0.27659,1.051055 c -0.44255,1.659561 -0.71914,2.102111 -3.65104,2.102111 h -2.70821 c -1.05106,0 -1.05106,-0.110637 -1.05106,-1.106374 v -6.221479 c 0,-1.71488 0.0553,-1.770199 1.99147,-1.770199 h 2.66189 c 1.32766,0 3.817,0 4.7021,1.327649 0.3319,0.497869 0.66382,1.298114 0.99573,2.736401 0.33191,0.387231 1.21701,0.331912 1.43828,-0.110638 -0.27659,-2.378704 -0.55318,-4.978684 -0.6085,-5.642509 -0.49787,0.110638 -2.71061,0.165956 -5.14464,0.165956 h -7.88374 c -1.82551,0 -3.54039,-0.05531 -5.14464,-0.165956 -0.44254,0.221275 -0.49787,1.161693 -0.11064,1.382968 l 0.77447,0.165956 c 2.10211,0.44255 2.32339,0.608506 2.32339,4.425498 z m 22.99189,0 c 0,3.816992 -0.22127,3.927629 -2.59997,4.425497 l -0.82978,0.165957 c -0.49787,0.221274 -0.44255,1.217011 0.11064,1.382968 1.93615,-0.110638 3.65103,-0.165957 5.42123,-0.165957 1.71488,0 3.34007,0.05532 5.66346,0.165957 0.44255,-0.165957 0.49787,-1.106375 0.11064,-1.382968 l -1.27233,-0.165957 C 329.2258,37.238 329.00453,36.961407 329.00453,33.144415 v -3.870728 c 0,-0.774462 0.11064,-0.885099 1.54892,-0.885099 0.8851,0 1.91974,0.221275 2.36229,0.885099 1.16169,1.770199 2.67483,4.147322 4.05779,5.917521 2.43403,3.097848 4.4255,4.148903 7.74463,4.148903 1.05105,0 1.82551,-0.110637 2.32338,-0.276593 0.22128,-0.165956 0.22128,-0.663825 0,-0.8851 -0.88509,-0.05531 -1.93615,-0.331912 -2.93189,-1.161693 -1.82551,-1.493605 -4.25954,-4.147321 -7.02548,-8.794093 -0.16595,-0.276594 -0.22127,-0.608506 0,-0.829781 2.15744,-0.774462 4.92337,-2.378705 4.92337,-5.919102 0,-5.808465 -5.60672,-6.881636 -10.75136,-6.881636 -3.04253,0 -6.08959,0.110638 -9.13212,0.331912 -0.55319,0.165957 -0.44255,1.32765 0,1.382968 l 1.54892,0.221275 c 1.27233,0.165956 1.32764,1.106375 1.32764,4.702091 z m 4.00391,-15.014118 c 0,-1.438287 0.38723,-1.548924 2.43402,-1.548924 3.87231,0 5.97753,2.292397 5.97753,5.058332 0,3.816991 -2.0499,5.255277 -5.64561,5.255277 -2.71063,0 -2.76594,0 -2.76594,-1.382967 z"
      />
   </g>
</svg>
