<svg width="32" height="32" viewBox="0 0 32 32" fill="none" xmlns="http://www.w3.org/2000/svg">
<path d="M9.33594 9.33317C9.33594 5.65128 12.3207 2.6665 16.0026 2.6665C19.6844 2.6665 22.6692 5.65128 22.6692 9.33317V15.3332C22.6692 19.015 19.6844 21.9998 16.0026 21.9998C12.3207 21.9998 9.33594 19.015 9.33594 15.3332V9.33317Z" fill="#A8A091"/>
<path d="M7.74472 18.9329C7.52361 18.4268 6.93409 18.1957 6.428 18.4169C5.92192 18.638 5.69091 19.2276 5.91203 19.7336C7.48179 23.3264 10.9171 25.9208 14.9963 26.2884V28.3332C14.9963 28.8856 15.444 29.3332 15.9963 29.3332C16.5485 29.3332 16.9963 28.8856 16.9963 28.3332V26.2884C21.0755 25.9208 24.5108 23.3264 26.0805 19.7336C26.3017 19.2276 26.0707 18.638 25.5645 18.4169C25.0585 18.1957 24.4689 18.4268 24.2479 18.9329C22.8581 22.1136 19.6853 24.3332 15.9963 24.3332C12.3073 24.3332 9.13444 22.1136 7.74472 18.9329Z" fill="#A8A091"/>
</svg>
