<svg width="20" height="20" viewBox="0 0 20 20" fill="none" xmlns="http://www.w3.org/2000/svg">
<path d="M12.1362 11.3166C12.1667 11.0494 12.0243 10.7763 11.7565 10.752C11.7517 10.7516 11.7467 10.7512 11.7419 10.7507L7.66391 10.4276C7.21405 10.392 6.76126 10.4436 6.333 10.5793L3.08152 11.61C2.73527 11.7197 2.5 12.0412 2.5 12.4043V16.6832C2.5 17.1434 2.8731 17.5166 3.33333 17.5166H4.03192L4.04213 17.5197C4.13324 17.5478 4.26404 17.5872 4.42666 17.6337C4.75134 17.7263 5.20573 17.8478 5.72621 17.9634C6.74224 18.1889 8.10435 18.4138 9.2495 18.3051C10.4747 18.1887 11.9897 17.6132 13.2983 17.0197C14.634 16.4138 15.8614 15.7387 16.5429 15.3491C17.1512 15.0013 17.5 14.3802 17.5 13.7267C17.5 12.4384 16.2975 12.1298 15 12.5L12.9167 13.125C12.0833 14.1667 11.6256 14.4297 10.3126 14.7107L9.26425 14.935C8.94742 15.0027 8.6345 14.8049 8.55983 14.4896C8.48292 14.1646 8.68833 13.8398 9.01492 13.7699L10.0382 13.551C11.1679 13.3092 12.011 12.4113 12.1362 11.3166Z" fill="currentColor"/>
<path d="M15.0052 6.25001C15.0052 7.86084 13.6994 9.16668 12.0885 9.16668C10.4777 9.16668 9.17188 7.86084 9.17188 6.25001C9.17188 4.63918 10.4777 3.33334 12.0885 3.33334C13.6994 3.33334 15.0052 4.63918 15.0052 6.25001Z" fill="currentColor"/>
<path d="M10.0609 2.60618C8.782 3.31754 7.91667 4.68271 7.91667 6.24999C7.91667 6.68328 7.98281 7.10112 8.10553 7.49397C8.04309 7.49796 7.98012 7.49999 7.91667 7.49999C6.30583 7.49999 5 6.19416 5 4.58332C5 2.97249 6.30583 1.66666 7.91667 1.66666C8.76458 1.66666 9.528 2.02849 10.0609 2.60618Z" fill="currentColor"/>
</svg>
