<svg width="16" height="16" viewBox="0 0 16 16" fill="none" xmlns="http://www.w3.org/2000/svg">
<path fill-rule="evenodd" clip-rule="evenodd" d="M1.53846 1C0.688793 1 0 1.65292 0 2.45833V12.6667C0 13.9553 1.10207 15 2.46154 15H14.7692C13.4098 15 12.3077 13.9553 12.3077 12.6667V2.45833C12.3077 1.65292 11.6189 1 10.7692 1H1.53846ZM8 6.25C7.66013 6.25 7.38462 6.51117 7.38462 6.83333C7.38462 7.1555 7.66013 7.41667 8 7.41667H9.23077C9.57064 7.41667 9.84615 7.1555 9.84615 6.83333C9.84615 6.51117 9.57064 6.25 9.23077 6.25H8ZM7.38462 4.5C7.38462 4.17783 7.66013 3.91667 8 3.91667H9.23077C9.57064 3.91667 9.84615 4.17783 9.84615 4.5C9.84615 4.82217 9.57064 5.08333 9.23077 5.08333H8C7.66013 5.08333 7.38462 4.82217 7.38462 4.5ZM3.07692 8.58333C2.73706 8.58333 2.46154 8.8445 2.46154 9.16667C2.46154 9.48883 2.73706 9.75 3.07692 9.75H9.23077C9.57064 9.75 9.84615 9.48883 9.84615 9.16667C9.84615 8.8445 9.57064 8.58333 9.23077 8.58333H3.07692ZM2.46154 11.5C2.46154 11.1778 2.73706 10.9167 3.07692 10.9167H9.23077C9.57064 10.9167 9.84615 11.1778 9.84615 11.5C9.84615 11.8222 9.57064 12.0833 9.23077 12.0833H3.07692C2.73706 12.0833 2.46154 11.8222 2.46154 11.5ZM3.07692 3.91667C2.73706 3.91667 2.46154 4.17783 2.46154 4.5V6.83333C2.46154 7.1555 2.73706 7.41667 3.07692 7.41667H5.53846C5.87833 7.41667 6.15385 7.1555 6.15385 6.83333V4.5C6.15385 4.17783 5.87833 3.91667 5.53846 3.91667H3.07692Z" fill="currentColor"/>
<path d="M13.5385 3.91667H15.0769C15.5867 3.91667 16 4.30842 16 4.79167V12.6667C16 13.311 15.449 13.8333 14.7692 13.8333C14.0895 13.8333 13.5385 13.311 13.5385 12.6667V3.91667Z" fill="currentColor"/>
</svg>
