<svg width="24" height="24" viewBox="0 0 24 24" fill="none" xmlns="http://www.w3.org/2000/svg">
<path fill-rule="evenodd" clip-rule="evenodd" d="M3.00785 4.74511C3.00785 3.22633 4.23907 1.99512 5.75785 1.99512H17.2529C18.7717 1.99512 20.0029 3.22633 20.0029 4.74512V13.7765C17.9797 12.5304 15.2942 12.7841 13.5406 14.5377C11.4904 16.5879 11.4904 19.9121 13.5406 21.9623L13.5747 21.9961H5.75781C4.23902 21.9961 3.0078 20.7649 3.00781 19.2461L3.00785 4.74511ZM7.75295 6C7.33874 6 7.00295 6.33579 7.00295 6.75C7.00295 7.16421 7.33874 7.5 7.75295 7.5H15.253C15.6672 7.5 16.003 7.16421 16.003 6.75C16.003 6.33579 15.6672 6 15.253 6H7.75295ZM7.75295 10C7.33874 10 7.00295 10.3358 7.00295 10.75C7.00295 11.1642 7.33874 11.5 7.75295 11.5H11.253C11.6672 11.5 12.003 11.1642 12.003 10.75C12.003 10.3358 11.6672 10 11.253 10H7.75295ZM7.75295 14C7.33874 14 7.00295 14.3358 7.00295 14.75C7.00295 15.1642 7.33874 15.5 7.75295 15.5H9.25295C9.66717 15.5 10.003 15.1642 10.003 14.75C10.003 14.3358 9.66717 14 9.25295 14H7.75295Z" fill="currentColor"/>
<path fill-rule="evenodd" clip-rule="evenodd" d="M19.9017 15.5911C18.4372 14.1266 16.0628 14.1266 14.5984 15.5911C13.1339 17.0555 13.1339 19.4299 14.5984 20.8944C15.8812 22.1772 17.8623 22.3363 19.3183 21.3717L20.7197 22.7731C21.0126 23.066 21.4875 23.066 21.7804 22.7731C22.0732 22.4802 22.0732 22.0053 21.7804 21.7124L20.379 20.311C21.3436 18.855 21.1845 16.8739 19.9017 15.5911ZM15.659 16.6517C16.5377 15.7731 17.9623 15.7731 18.841 16.6517C19.7197 17.5304 19.7197 18.955 18.841 19.8337C17.9623 20.7123 16.5377 20.7123 15.659 19.8337C14.7804 18.955 14.7804 17.5304 15.659 16.6517Z" fill="currentColor"/>
</svg>
