<svg xmlns="http://www.w3.org/2000/svg" width="16" height="16" viewBox="0 0 16 16" fill="none">
  <path fill-rule="evenodd" clip-rule="evenodd" d="M15.8337 4.95182C15.8337 4.76304 15.8337 4.57427 15.8328 4.38549C15.8319 4.22628 15.8302 4.06706 15.8257 3.90784C15.8166 3.56083 15.7959 3.21117 15.7343 2.8681C15.6718 2.51976 15.5693 2.19561 15.4084 1.87893C15.2501 1.56798 15.0433 1.28385 14.7966 1.03711C14.5498 0.790367 14.2652 0.58365 13.9543 0.425308C13.6381 0.264333 13.3139 0.162292 12.9661 0.0994001C12.623 0.0378251 12.2729 0.01715 11.9258 0.00791669C11.7667 0.00351669 11.6074 0.00175834 11.4482 0.000883341C11.2591 7.46998e-09 11.0699 0 10.8808 0H4.95287C4.76375 0 4.57462 7.46998e-09 4.38549 0.000883341C4.22627 0.00175834 4.06706 0.00351669 3.90784 0.00791669C3.56083 0.0175917 3.21072 0.0378251 2.86766 0.0998418C2.51932 0.162292 2.19561 0.264775 1.87937 0.42575C1.56842 0.584092 1.28385 0.790808 1.03711 1.03755C0.790367 1.28429 0.58365 1.56842 0.425308 1.87937C0.264333 2.19605 0.161858 2.5202 0.0994001 2.86854C0.0378251 3.2116 0.01715 3.5617 0.00791669 3.90828C0.00351669 4.0675 0.00175834 4.22672 0.000883341 4.38593C7.46998e-09 4.57462 0 4.76374 0 4.95287V10.8804C0 11.0695 7.46998e-09 11.2587 0.000883341 11.4478C0.00175834 11.607 0.00351669 11.7662 0.00791669 11.9254C0.01715 12.2724 0.0378251 12.6221 0.0994001 12.9652C0.161858 13.3135 0.264333 13.6377 0.425308 13.9543C0.58365 14.2652 0.790367 14.5494 1.03711 14.7962C1.28385 15.0429 1.56842 15.2496 1.87937 15.4079C2.19561 15.5689 2.51976 15.671 2.86766 15.7338C3.21072 15.7954 3.56083 15.8161 3.90784 15.8253C4.06706 15.8298 4.22627 15.8315 4.38549 15.8324C4.53677 15.8334 4.68804 15.8333 4.83931 15.8333L10.8804 15.8333C11.0695 15.8333 11.2587 15.8332 11.4478 15.8324C11.607 15.8315 11.7662 15.8298 11.9254 15.8253C12.2724 15.8161 12.6225 15.7954 12.9656 15.7338C13.3139 15.6714 13.6377 15.5689 13.9539 15.4079C14.2648 15.2496 14.5494 15.0429 14.7962 14.7962C15.0429 14.5494 15.2496 14.2652 15.4079 13.9543C15.5689 13.6377 15.6714 13.3135 15.7338 12.9652C15.7954 12.6221 15.8161 12.272 15.8253 11.9254C15.8298 11.7662 15.8315 11.607 15.8324 11.4478C15.8334 11.2965 15.8333 11.1453 15.8333 10.9939L15.8337 4.95182ZM4.16667 12.9167C4.85702 12.9167 5.41667 12.357 5.41667 11.6667C5.41667 10.9763 4.85702 10.4167 4.16667 10.4167C3.47631 10.4167 2.91667 10.9763 2.91667 11.6667C2.91667 12.357 3.47631 12.9167 4.16667 12.9167ZM7.91667 12.9167C7.91667 10.1552 5.67809 7.91667 2.91667 7.91667V6.25C6.59858 6.25 9.58333 9.23475 9.58333 12.9167H7.91667ZM2.91667 4.58333C7.519 4.58333 11.25 8.31433 11.25 12.9167H12.9167C12.9167 7.39383 8.4395 2.91667 2.91667 2.91667V4.58333Z" fill="currentColor"/>
</svg>
