<svg width="20" height="20" viewBox="0 0 20 20" fill="none" xmlns="http://www.w3.org/2000/svg">
<path d="M2.29297 9.30166V3.95866C2.29297 3.03818 3.03916 2.29199 3.95964 2.29199H9.30264C9.74464 2.29199 10.1686 2.46758 10.4811 2.78015L17.1561 9.45516C17.807 10.106 17.807 11.1613 17.1561 11.8122L11.8131 17.1552C11.1623 17.806 10.107 17.806 9.45614 17.1552L2.78113 10.4802C2.46856 10.1676 2.29297 9.74366 2.29297 9.30166Z" stroke="currentColor" stroke-width="1.5" stroke-linejoin="round"/>
<path d="M6.875 6.25C6.875 6.59517 6.59517 6.875 6.25 6.875C5.90483 6.875 5.625 6.59517 5.625 6.25C5.625 5.90483 5.90483 5.625 6.25 5.625C6.59517 5.625 6.875 5.90483 6.875 6.25Z" stroke="currentColor" stroke-width="1.5" stroke-linejoin="round"/>
</svg>
