<?xml version="1.0" encoding="UTF-8" standalone="no"?>
<svg
   id="Layer_1"
   data-name="Layer 1"
   viewBox="0 0 287.66468 283.30451"
   version="1.1"
   sodipodi:docname="tiny-color.svg"
   inkscape:export-filename="full-color-178x200.png"
   inkscape:export-xdpi="48.793369"
   inkscape:export-ydpi="48.793369"
   inkscape:version="1.2.2 (b0a8486541, 2022-12-01)"
   width="287.66467"
   height="283.3045"
   xmlns:inkscape="http://www.inkscape.org/namespaces/inkscape"
   xmlns:sodipodi="http://sodipodi.sourceforge.net/DTD/sodipodi-0.dtd"
   xmlns="http://www.w3.org/2000/svg"
   xmlns:svg="http://www.w3.org/2000/svg">
  <sodipodi:namedview
     id="namedview431"
     pagecolor="#505050"
     bordercolor="#eeeeee"
     borderopacity="1"
     inkscape:showpageshadow="0"
     inkscape:pageopacity="0"
     inkscape:pagecheckerboard="true"
     inkscape:deskcolor="#d1d1d1"
     showgrid="false"
     inkscape:zoom="1.474343"
     inkscape:cx="283.51611"
     inkscape:cy="154.98429"
     inkscape:window-width="1920"
     inkscape:window-height="1137"
     inkscape:window-x="0"
     inkscape:window-y="0"
     inkscape:window-maximized="1"
     inkscape:current-layer="Layer_1"
     showguides="true">
    <sodipodi:guide
       position="211.81778,-4.6171719"
       orientation="1,0"
       id="guide700"
       inkscape:locked="false" />
  </sodipodi:namedview>
  <defs
     id="defs330">
    <style
       id="style328">
      .cls-1 {
        fill: #848582;
      }

      .cls-1, .cls-2 {
        stroke-width: 0px;
      }

      .cls-3 {
        fill: none;
        stroke: #848582;
        stroke-miterlimit: 10;
        stroke-width: 7px;
      }

      .cls-2 {
        fill: #b53c2c;
      }
    </style>
  </defs>
  <path
     class="cls-2"
     d="m 144.45157,0.3054759 c -4.3518,0.967813 -7.86608,4.343356 -8.85139,8.521476 -1.33838,5.6809841 1.78998,10.8505231 6.70833,13.0143321 V 283.2691 h 9.9845 V 21.841284 c 4.14652,-1.786126 7.03677,-5.767536 7.03677,-10.394155 0,-7.1838481 -7.00393,-12.8648331 -14.87,-11.1337851 z"
     id="path390"
     sodipodi:nodetypes="ccccccscc" />
  <path
     class="cls-1"
     d="m 169.42923,56.548793 c -4.31896,0.967813 -7.84145,4.311881 -8.81855,8.450661 -1.37122,5.58656 1.64219,10.63807 6.3799,12.8727 V 283.23369 h 9.98449 V 78.210494 c 4.31895,-1.73105 7.36521,-5.81475 7.36521,-10.55152 0,-7.19959 -7.03677,-12.849097 -14.90284,-11.11805 z m 2.87382,16.342661 c -2.95593,0 -5.36174,-2.30544 -5.36174,-5.13806 0,-2.83262 2.40581,-5.13807 5.36174,-5.13807 2.95594,0 5.36174,2.30545 5.36174,5.13807 0,2.83262 -2.4058,5.13806 -5.36174,5.13806 z"
     id="path392"
     sodipodi:nodetypes="ccccccsccsssss" />
  <path
     class="cls-1"
     d="m 287.3136,104.42013 c -0.98532,-3.94207 -4.29432,-7.175976 -8.408,-8.198866 -6.3799,-1.62089 -12.25071,1.67597 -14.39377,6.751076 h -74.93297 v 180.33217 h 10.01733 V 112.50884 h 37.61429 l -0.0903,19.8205 6.61801,-0.17311 0.11495,-19.65526 h 21.15958 c 1.99526,3.65881 5.99398,6.18457 10.64137,6.18457 7.57048,0 13.56446,-6.72749 11.65131,-14.27328 z m -11.66774,8.0415 c -2.95594,0 -5.36174,-2.30544 -5.36174,-5.13806 0,-2.83263 2.4058,-5.13807 5.36174,-5.13807 2.95593,0 5.36174,2.30544 5.36174,5.13807 0,2.83262 -2.40581,5.13806 -5.36174,5.13806 z"
     id="path394"
     sodipodi:nodetypes="ccccccccccccsccsssss" />
  <g
     id="g404"
     transform="matrix(0.82109333,0,0,0.78683991,-0.00338568,-0.0092601)">
    <line
       class="cls-3"
       x1="62.259998"
       y1="196.3"
       x2="82.260002"
       y2="243.36"
       id="line396" />
    <line
       class="cls-3"
       x1="60.990002"
       y1="196.52"
       x2="43.900002"
       y2="244.71001"
       id="line398" />
    <path
       class="cls-1"
       d="m 24.26,251.92 h 75.26 v 4.47 c 0,7.53 -6.11,13.64 -13.64,13.64 H 36.47 c -6.73,0 -12.2,-5.47 -12.2,-12.2 v -5.91 0 z"
       transform="rotate(-0.27,63.036859,265.40775)"
       id="path400" />
    <path
       class="cls-1"
       d="m 100.53,245.87 -75.99,0.36 c -0.9,0 -1.63,-0.85 -1.64,-1.92 v -0.09 c 0,-1.06 0.72,-1.93 1.62,-1.93 l 75.99,-0.36 c 0.9,0 1.63,0.85 1.64,1.92 v 0.09 c 0,1.06 -0.72,1.93 -1.62,1.93 z"
       id="path402" />
  </g>
  <g
     id="g414"
     transform="matrix(0.82109333,0,0,0.78683991,-0.00338568,-0.0092601)">
    <line
       class="cls-3"
       x1="293.35001"
       y1="164.12"
       x2="313.35001"
       y2="211.17"
       id="line406" />
    <line
       class="cls-3"
       x1="292.07999"
       y1="164.33"
       x2="274.98999"
       y2="212.52"
       id="line408" />
    <path
       class="cls-1"
       d="m 255.35,219.73 h 75.26 v 4.47 c 0,7.53 -6.11,13.64 -13.64,13.64 h -49.41 c -6.73,0 -12.2,-5.47 -12.2,-12.2 v -5.91 0 z"
       transform="rotate(-0.27,298.66574,232.00976)"
       id="path410" />
    <path
       class="cls-1"
       d="m 331.62,213.69 -75.99,0.36 c -0.9,0 -1.63,-0.85 -1.64,-1.92 v -0.09 c 0,-1.06 0.72,-1.93 1.62,-1.93 l 75.99,-0.36 c 0.9,0 1.63,0.85 1.64,1.92 v 0.09 c 0,1.06 -0.72,1.93 -1.62,1.93 z"
       id="path412" />
  </g>
  <path
     class="cls-1"
     d="m 23.537359,128.62332 c -1.428702,-4.82332 -6.018614,-8.39558 -11.503517,-8.39558 -7.6033237,0 -13.5644617,6.7983 -11.68415768,14.3677 1.00994498,3.97354 4.26147398,7.22319 8.37515198,8.28542 5.4520587,1.40058 10.5510487,-0.80257 13.2606567,-4.68169 h 25.51137 l -0.09032,21.08731 6.618012,-0.17311 0.123164,-20.9142 h 37.376172 l -0.34486,145.06954 10.017339,3.9e-4 0.34486,-154.63791 H 23.537359 Z m -11.470674,8.26969 c -2.9641467,0 -5.3617387,-2.29757 -5.3617387,-5.13806 0,-2.8405 2.397592,-5.13807 5.3617387,-5.13807 2.964147,0 5.36174,2.29757 5.36174,5.13807 0,2.84049 -2.397593,5.13806 -5.36174,5.13806 z"
     id="path416"
     sodipodi:nodetypes="cscccccccccccccsssss" />
  <path
     class="cls-1"
     d="m 117.8892,32.613123 c -4.11368,0.944208 -7.51301,4.083699 -8.61327,8.025767 -1.69967,6.082272 1.69966,11.684572 6.97108,13.793303 V 283.2691 h 9.98449 V 54.030905 c 3.93304,-1.888416 6.64265,-5.743931 6.64265,-10.228919 0,-7.286137 -7.0614,-13.0222 -14.99316,-11.196732 z m 3.21868,15.933508 c -2.96414,0 -5.36174,-2.297573 -5.36174,-5.138065 0,-2.840492 2.40581,-5.138064 5.36174,-5.138064 2.95594,0 5.36174,2.297572 5.36174,5.138064 0,2.840492 -2.39759,5.138065 -5.36174,5.138065 z"
     id="path428"
     sodipodi:nodetypes="ccccccsccsssss" />
</svg>
