<?xml version="1.0" encoding="UTF-8"?>
<svg id="Layer_1" data-name="Layer 1" xmlns="http://www.w3.org/2000/svg" viewBox="0 0 287.65 283.29">
  <defs>
    <style>
      .cls-1 {
        fill: #848582;
      }

      .cls-1, .cls-2 {
        stroke-width: 0px;
      }

      .cls-3 {
        fill: none;
        stroke: #848582;
        stroke-miterlimit: 10;
        stroke-width: 7px;
      }

      .cls-2 {
        fill: #B53C2C;
      }
    </style>
  </defs>
  <path id="path390" class="cls-2" d="M144.44.3c-4.35.97-7.87,4.34-8.85,8.52-1.34,5.68,1.79,10.85,6.71,13.01v261.43h9.98V21.83c4.15-1.79,7.04-5.77,7.04-10.39,0-7.18-7-12.86-14.87-11.13h0Z"/>
  <path id="path392" class="cls-1" d="M169.42,56.54c-4.32.97-7.84,4.31-8.82,8.45-1.37,5.59,1.64,10.64,6.38,12.87v205.36h9.98V78.2c4.32-1.73,7.37-5.81,7.37-10.55,0-7.2-7.04-12.85-14.9-11.12h0ZM172.29,72.88c-2.96,0-5.36-2.31-5.36-5.14s2.41-5.14,5.36-5.14,5.36,2.31,5.36,5.14-2.41,5.14-5.36,5.14Z"/>
  <path id="path394" class="cls-1" d="M287.3,104.41c-.99-3.94-4.29-7.18-8.41-8.2-6.38-1.62-12.25,1.68-14.39,6.75h-74.93v180.33h10.02V112.5h37.61l-.09,19.82,6.62-.17.11-19.66h21.16c2,3.66,5.99,6.18,10.64,6.18,7.57,0,13.56-6.73,11.65-14.27h.01ZM275.64,112.45c-2.96,0-5.36-2.31-5.36-5.14s2.41-5.14,5.36-5.14,5.36,2.31,5.36,5.14-2.41,5.14-5.36,5.14Z"/>
  <g id="g404">
    <line id="line396" class="cls-3" x1="51.11" y1="154.44" x2="67.53" y2="191.47"/>
    <line id="line398" class="cls-3" x1="50.07" y1="154.61" x2="36.03" y2="192.53"/>
    <path id="path400" class="cls-1" d="M19.85,198.35l61.79-.28.02,3.52c.03,5.92-4.96,10.76-11.15,10.78l-40.57.18c-5.53.02-10.04-4.26-10.06-9.55l-.02-4.65h0Z"/>
    <path id="path402" class="cls-1" d="M82.53,193.44l-62.39.28c-.74,0-1.34-.67-1.35-1.51v-.07c0-.83.59-1.52,1.33-1.52l62.39-.28c.74,0,1.34.67,1.35,1.51v.07c0,.83-.59,1.52-1.33,1.52Z"/>
  </g>
  <g id="g414">
    <line id="line406" class="cls-3" x1="240.85" y1="129.12" x2="257.28" y2="166.14"/>
    <line id="line408" class="cls-3" x1="239.81" y1="129.28" x2="225.78" y2="167.2"/>
    <path id="path410" class="cls-1" d="M209.61,173.03l61.79-.28.02,3.52c.03,5.92-4.96,10.76-11.15,10.78l-40.57.18c-5.53.02-10.04-4.26-10.06-9.55l-.02-4.65h0Z"/>
    <path id="path412" class="cls-1" d="M272.28,168.12l-62.39.28c-.74,0-1.34-.67-1.35-1.51v-.07c0-.83.59-1.52,1.33-1.52l62.39-.28c.74,0,1.34.67,1.35,1.51v.07c0,.83-.59,1.52-1.33,1.52h0Z"/>
  </g>
  <path id="path416" class="cls-1" d="M23.53,128.61c-1.43-4.82-6.02-8.4-11.5-8.4-7.6,0-13.56,6.8-11.68,14.37,1.01,3.97,4.26,7.22,8.38,8.29,5.45,1.4,10.55-.8,13.26-4.68h25.51l-.09,21.09,6.62-.17.12-20.91h37.38l-.34,145.07h10.02l.34-154.64H23.53v-.02ZM12.06,136.88c-2.96,0-5.36-2.3-5.36-5.14s2.4-5.14,5.36-5.14,5.36,2.3,5.36,5.14-2.4,5.14-5.36,5.14Z"/>
  <path id="path428" class="cls-1" d="M117.88,32.6c-4.11.94-7.51,4.08-8.61,8.03-1.7,6.08,1.7,11.68,6.97,13.79v228.84h9.98V54.02c3.93-1.89,6.64-5.74,6.64-10.23,0-7.29-7.06-13.02-14.99-11.2h.01ZM121.1,48.54c-2.96,0-5.36-2.3-5.36-5.14s2.41-5.14,5.36-5.14,5.36,2.3,5.36,5.14-2.4,5.14-5.36,5.14Z"/>
</svg>